<svg xmlns="http://www.w3.org/2000/svg" width="210.815" height="36.377" viewBox="0 0 210.815 36.377">
  <g id="ABBOT_LABS" data-name="ABBOT LABS" transform="translate(-850.238 -968.366)">
    <g id="Grupo_152" data-name="Grupo 152">
      <path id="Trazado_437" data-name="Trazado 437" d="M850.373,971.467h33.889s4.077-.415,5.715,1.359a5.92,5.92,0,0,1,1.909,4.627V999.1s.408,5.579-4.627,5.579H855.137s-4.9-.959-4.9-4.356V987.531s.407-5.042,4.9-5.042h25.856v5.45H857.855s-2.446-.687-2.446,2.446v6.809s-.551,1.767,3.261,1.767h24.369s3.261.679,3.261-3.4V979.363s.687-2.453-3.669-2.453H850.373v-5.443Z" fill="#999"/>
      <g id="Grupo_151" data-name="Grupo 151">
        <g id="Grupo_149" data-name="Grupo 149">
          <path id="Trazado_438" data-name="Trazado 438" d="M899.034,987.622h2.9v11.367h6.864v2.492h-9.76V987.622Z" fill="#999"/>
          <path id="Trazado_439" data-name="Trazado 439" d="M916.231,996.5a3.077,3.077,0,0,1-.517.264,4.442,4.442,0,0,1-.705.178l-.6.113a3.907,3.907,0,0,0-1.213.367,1.415,1.415,0,0,0-.244,2.134,1.461,1.461,0,0,0,.93.3,2.7,2.7,0,0,0,1.589-.508,2.157,2.157,0,0,0,.762-1.852v-1Zm-1.627-1.25a4.215,4.215,0,0,0,1.063-.235.806.806,0,0,0,.573-.762.89.89,0,0,0-.442-.865,2.665,2.665,0,0,0-1.278-.244,1.674,1.674,0,0,0-1.345.47,1.956,1.956,0,0,0-.376.94h-2.585a3.927,3.927,0,0,1,.752-2.209,4.374,4.374,0,0,1,3.648-1.354,6.484,6.484,0,0,1,2.99.667,2.565,2.565,0,0,1,1.307,2.52v4.7q0,.489.018,1.185a1.485,1.485,0,0,0,.16.714.96.96,0,0,0,.4.311v.4h-2.915a2.993,2.993,0,0,1-.169-.583q-.047-.273-.075-.621a5.507,5.507,0,0,1-1.279,1.025,3.847,3.847,0,0,1-1.955.5,3.4,3.4,0,0,1-2.3-.789,2.856,2.856,0,0,1-.9-2.257,2.922,2.922,0,0,1,1.458-2.736,6.475,6.475,0,0,1,2.35-.658l.912-.113Z" fill="#999"/>
          <path id="Trazado_440" data-name="Trazado 440" d="M929.986,992.464a5.9,5.9,0,0,1,1.147,3.761,6.611,6.611,0,0,1-1.128,3.958,4.083,4.083,0,0,1-5.19,1.063,4.087,4.087,0,0,1-1-1.053v1.288H921.2v-13.84h2.671v4.926a3.912,3.912,0,0,1,1.118-1.09,3.32,3.32,0,0,1,1.843-.47,3.783,3.783,0,0,1,3.159,1.457Zm-2.237,6.243a3.823,3.823,0,0,0,.573-2.2,4.957,4.957,0,0,0-.282-1.8,1.963,1.963,0,0,0-1.974-1.354,1.994,1.994,0,0,0-2,1.325,4.984,4.984,0,0,0-.282,1.824,3.82,3.82,0,0,0,.583,2.182,2,2,0,0,0,1.777.865,1.841,1.841,0,0,0,1.608-.837Z" fill="#999"/>
          <path id="Trazado_441" data-name="Trazado 441" d="M939.454,998.754a3.894,3.894,0,0,0,.63-2.379,3.849,3.849,0,0,0-.63-2.369,2.124,2.124,0,0,0-1.8-.837,2.148,2.148,0,0,0-1.814.837,3.843,3.843,0,0,0-.63,2.369,3.887,3.887,0,0,0,.63,2.379,2.148,2.148,0,0,0,1.814.837,2.124,2.124,0,0,0,1.8-.837Zm2.144,1.486a5.655,5.655,0,0,1-7.879,0,6.377,6.377,0,0,1,0-7.71,5.583,5.583,0,0,1,7.879,0,6.374,6.374,0,0,1,0,7.71Z" fill="#999"/>
          <path id="Trazado_442" data-name="Trazado 442" d="M950.5,991c.038,0,.116,0,.235.01v2.745c-.169-.019-.32-.031-.451-.038s-.239-.009-.32-.009a2.223,2.223,0,0,0-2.172,1.053,4.1,4.1,0,0,0-.31,1.824v4.9h-2.7V991.232h2.558v1.787a5.688,5.688,0,0,1,1.081-1.4,2.942,2.942,0,0,1,1.956-.63.67.67,0,0,1,.122.009Z" fill="#999"/>
          <path id="Trazado_443" data-name="Trazado 443" d="M957.958,996.5a3.074,3.074,0,0,1-.517.264,4.443,4.443,0,0,1-.7.178l-.6.113a3.906,3.906,0,0,0-1.213.367,1.415,1.415,0,0,0-.244,2.134,1.461,1.461,0,0,0,.93.3,2.7,2.7,0,0,0,1.589-.508,2.157,2.157,0,0,0,.762-1.852v-1Zm-1.627-1.25a4.215,4.215,0,0,0,1.063-.235.806.806,0,0,0,.573-.762.89.89,0,0,0-.442-.865,2.666,2.666,0,0,0-1.278-.244,1.674,1.674,0,0,0-1.345.47,1.956,1.956,0,0,0-.376.94h-2.585a3.927,3.927,0,0,1,.752-2.209,4.374,4.374,0,0,1,3.648-1.354,6.484,6.484,0,0,1,2.99.667,2.565,2.565,0,0,1,1.307,2.52v4.7q0,.489.018,1.185a1.485,1.485,0,0,0,.16.714.96.96,0,0,0,.4.311v.4H958.3a2.994,2.994,0,0,1-.169-.583q-.047-.273-.075-.621a5.507,5.507,0,0,1-1.279,1.025,3.85,3.85,0,0,1-1.955.5,3.4,3.4,0,0,1-2.3-.789,2.856,2.856,0,0,1-.9-2.257,2.922,2.922,0,0,1,1.458-2.736,6.475,6.475,0,0,1,2.35-.658l.912-.113Z" fill="#999"/>
          <path id="Trazado_444" data-name="Trazado 444" d="M961.963,993.235v-1.909h1.429v-2.858h2.652v2.858h1.664v1.909h-1.664v5.416a1.236,1.236,0,0,0,.16.789,1.794,1.794,0,0,0,.977.151h.254l.273-.019v2l-1.269.047a3.411,3.411,0,0,1-2.6-.658,1.962,1.962,0,0,1-.452-1.42v-6.309Z" fill="#999"/>
          <path id="Trazado_445" data-name="Trazado 445" d="M975.832,998.754a3.9,3.9,0,0,0,.629-2.379,3.856,3.856,0,0,0-.629-2.369,2.126,2.126,0,0,0-1.806-.837,2.148,2.148,0,0,0-1.814.837,3.849,3.849,0,0,0-.63,2.369,3.894,3.894,0,0,0,.63,2.379,2.148,2.148,0,0,0,1.814.837,2.126,2.126,0,0,0,1.806-.837Zm2.143,1.486a5.655,5.655,0,0,1-7.879,0,6.377,6.377,0,0,1,0-7.71,5.583,5.583,0,0,1,7.879,0,6.373,6.373,0,0,1,0,7.71Z" fill="#999"/>
          <path id="Trazado_446" data-name="Trazado 446" d="M986.879,991c.038,0,.116,0,.235.01v2.745c-.169-.019-.32-.031-.451-.038s-.238-.009-.32-.009a2.223,2.223,0,0,0-2.172,1.053,4.1,4.1,0,0,0-.31,1.824v4.9h-2.7V991.232h2.557v1.787a5.688,5.688,0,0,1,1.081-1.4,2.942,2.942,0,0,1,1.956-.63.67.67,0,0,1,.122.009Z" fill="#999"/>
          <path id="Trazado_447" data-name="Trazado 447" d="M991.439,990.01h-2.717v-2.473h2.717v2.473Zm-2.717,1.222h2.717v10.249h-2.717V991.232Z" fill="#999"/>
          <path id="Trazado_448" data-name="Trazado 448" d="M996.629,993.752a2.929,2.929,0,0,0-.639,1.58h4.165a2.3,2.3,0,0,0-.649-1.608,1.974,1.974,0,0,0-1.429-.555,1.838,1.838,0,0,0-1.448.583Zm3.752-2.313a4.041,4.041,0,0,1,1.692,1.514,5.165,5.165,0,0,1,.78,2.115,13.721,13.721,0,0,1,.085,2.031h-7.014a2.549,2.549,0,0,0,.968,2.163,2.282,2.282,0,0,0,1.336.385,1.919,1.919,0,0,0,1.344-.47,2.225,2.225,0,0,0,.5-.705h2.736a3.4,3.4,0,0,1-.949,1.852,4.652,4.652,0,0,1-3.686,1.495,5.194,5.194,0,0,1-3.45-1.26,5.079,5.079,0,0,1-1.495-4.1,5.713,5.713,0,0,1,1.344-4.081,4.631,4.631,0,0,1,3.507-1.419,5.372,5.372,0,0,1,2.3.479Z" fill="#999"/>
          <path id="Trazado_449" data-name="Trazado 449" d="M1006.831,998.209a1.785,1.785,0,0,0,.366,1.015,2.481,2.481,0,0,0,1.843.536,2.778,2.778,0,0,0,1.251-.235.787.787,0,0,0,.094-1.392,15.37,15.37,0,0,0-2.793-.808,5.814,5.814,0,0,1-2.454-1.081,2.346,2.346,0,0,1-.714-1.843,3.185,3.185,0,0,1,1.109-2.435,4.476,4.476,0,0,1,3.14-1.025,5.7,5.7,0,0,1,3.122.771,3.26,3.26,0,0,1,1.391,2.642h-2.679a1.584,1.584,0,0,0-.292-.818,1.835,1.835,0,0,0-1.5-.546,2.188,2.188,0,0,0-1.25.273.786.786,0,0,0-.367.639.7.7,0,0,0,.4.668,17.1,17.1,0,0,0,2.792.743,5.14,5.14,0,0,1,2.4,1.137,2.588,2.588,0,0,1,.79,1.928,3.123,3.123,0,0,1-1.138,2.491,6.821,6.821,0,0,1-7.071-.056,3.34,3.34,0,0,1-1.147-2.6Z" fill="#999"/>
          <path id="Trazado_450" data-name="Trazado 450" d="M1015.311,1003.709a2.077,2.077,0,0,0,1.185-.752,2.749,2.749,0,0,0,.442-1.476h-1.627v-2.8h2.9v2.426a5.64,5.64,0,0,1-.169,1.335,2.723,2.723,0,0,1-.63,1.2,3.184,3.184,0,0,1-1.175.818,2.949,2.949,0,0,1-.922.282v-1.034Z" fill="#999"/>
          <path id="Trazado_451" data-name="Trazado 451" d="M1028.465,997.2a2.843,2.843,0,0,0,.517,1.419,2.975,2.975,0,0,0,2.417.856,5.086,5.086,0,0,0,1.664-.226,1.608,1.608,0,0,0,1.213-1.607,1.188,1.188,0,0,0-.6-1.063,6.48,6.48,0,0,0-1.89-.649l-1.467-.329a9.29,9.29,0,0,1-2.99-1.062,3.38,3.38,0,0,1-1.4-3,4.007,4.007,0,0,1,1.354-3.093,5.732,5.732,0,0,1,3.977-1.232,6.012,6.012,0,0,1,3.733,1.166,4.128,4.128,0,0,1,1.627,3.366h-2.783a1.991,1.991,0,0,0-1.091-1.777,3.668,3.668,0,0,0-1.683-.348,3.137,3.137,0,0,0-1.786.452,1.436,1.436,0,0,0-.668,1.26,1.191,1.191,0,0,0,.658,1.109,8.084,8.084,0,0,0,1.8.574l2.389.573a6.183,6.183,0,0,1,2.369,1.006,3.39,3.39,0,0,1,1.241,2.83,4,4,0,0,1-1.457,3.159,6.083,6.083,0,0,1-4.1,1.251,6.675,6.675,0,0,1-4.259-1.232,4.122,4.122,0,0,1-1.551-3.4Z" fill="#999"/>
          <g id="Grupo_147" data-name="Grupo 147">
            <rect id="Rect치ngulo_58" data-name="Rect치ngulo 58" width="2.849" height="2.802" transform="translate(1038.948 998.679)" fill="#999"/>
            <path id="Trazado_452" data-name="Trazado 452" d="M1040.373,1000.08" fill="#999"/>
          </g>
          <path id="Trazado_453" data-name="Trazado 453" d="M1048.351,996.244h3.516l-1.73-5.454-1.786,5.454Zm.178-8.622h3.272l4.908,13.859h-3.14l-.893-2.849h-5.106l-.959,2.849h-3.027l4.945-13.859Z" fill="#999"/>
          <g id="Grupo_148" data-name="Grupo 148">
            <rect id="Rect치ngulo_59" data-name="Rect치ngulo 59" width="2.849" height="2.802" transform="translate(1058.204 998.679)" fill="#999"/>
            <path id="Trazado_454" data-name="Trazado 454" d="M1059.629,1000.08" fill="#999"/>
          </g>
        </g>
        <g id="Grupo_150" data-name="Grupo 150">
          <path id="Trazado_455" data-name="Trazado 455" d="M902.823,976.988h3.517l-1.73-5.453-1.787,5.453Zm.179-8.622h3.272l4.908,13.859h-3.14l-.894-2.849h-5.1l-.959,2.849h-3.028L903,968.366Z" fill="#999"/>
          <path id="Trazado_456" data-name="Trazado 456" d="M921.421,973.208a5.906,5.906,0,0,1,1.147,3.761,6.611,6.611,0,0,1-1.128,3.958,4.08,4.08,0,0,1-5.19,1.063,4.071,4.071,0,0,1-1-1.053v1.288H912.63v-13.84h2.67v4.927a3.906,3.906,0,0,1,1.119-1.091,3.326,3.326,0,0,1,1.843-.47,3.785,3.785,0,0,1,3.159,1.457Zm-2.238,6.243a3.829,3.829,0,0,0,.574-2.2,4.957,4.957,0,0,0-.282-1.8,1.966,1.966,0,0,0-1.975-1.354,1.993,1.993,0,0,0-2,1.326,4.974,4.974,0,0,0-.283,1.824,3.824,3.824,0,0,0,.583,2.181,2,2,0,0,0,1.777.865,1.839,1.839,0,0,0,1.608-.837Z" fill="#999"/>
          <path id="Trazado_457" data-name="Trazado 457" d="M933.183,973.208a5.9,5.9,0,0,1,1.147,3.761,6.612,6.612,0,0,1-1.128,3.958,4.08,4.08,0,0,1-5.19,1.063,4.1,4.1,0,0,1-1-1.053v1.288h-2.623v-13.84h2.67v4.927a3.918,3.918,0,0,1,1.119-1.091,3.328,3.328,0,0,1,1.843-.47,3.785,3.785,0,0,1,3.159,1.457Zm-2.238,6.243a3.813,3.813,0,0,0,.574-2.2,4.959,4.959,0,0,0-.282-1.8,1.965,1.965,0,0,0-1.975-1.354,1.993,1.993,0,0,0-2,1.326,4.976,4.976,0,0,0-.282,1.824,3.817,3.817,0,0,0,.583,2.181,1.994,1.994,0,0,0,1.777.865,1.838,1.838,0,0,0,1.607-.837Z" fill="#999"/>
          <path id="Trazado_458" data-name="Trazado 458" d="M942.651,979.5a4.788,4.788,0,0,0,0-4.748,2.126,2.126,0,0,0-1.8-.837,2.149,2.149,0,0,0-1.815.837,4.788,4.788,0,0,0,0,4.748,2.149,2.149,0,0,0,1.815.837,2.124,2.124,0,0,0,1.8-.837Zm2.144,1.486a5.655,5.655,0,0,1-7.879,0,6.373,6.373,0,0,1,0-7.71,5.583,5.583,0,0,1,7.879,0,6.378,6.378,0,0,1,0,7.71Z" fill="#999"/>
          <path id="Trazado_459" data-name="Trazado 459" d="M946.957,973.979v-1.908h1.429v-2.859h2.652v2.859H952.7v1.908h-1.664V979.4a1.241,1.241,0,0,0,.16.79,1.81,1.81,0,0,0,.978.15h.253l.273-.019v2l-1.269.047a3.4,3.4,0,0,1-2.595-.658,1.958,1.958,0,0,1-.452-1.42v-6.309Z" fill="#999"/>
          <path id="Trazado_460" data-name="Trazado 460" d="M953.37,973.979v-1.908H954.8v-2.859h2.651v2.859h1.664v1.908H957.45V979.4a1.241,1.241,0,0,0,.16.79,1.81,1.81,0,0,0,.978.15h.254l.272-.019v2l-1.269.047a3.405,3.405,0,0,1-2.595-.658,1.958,1.958,0,0,1-.451-1.42v-6.309Z" fill="#999"/>
        </g>
      </g>
    </g>
  </g>
</svg>
