<svg xmlns="http://www.w3.org/2000/svg" width="250.44" height="41.462" viewBox="0 0 250.44 41.462">
  <g id="CARREFOUR" transform="translate(-522.158 -968.656)">
    <g id="Grupo_139" data-name="Grupo 139">
      <path id="Trazado_362" data-name="Trazado 362" d="M539.943,974.881a1.984,1.984,0,0,1,2.112,2.113c0,1.111-.222,2.222-.222,3.445,0,.89.222,1.779.222,2.668a2.527,2.527,0,0,1-2.779,2.335c-1.778,0-2.668-.89-2.556-2.669,0-1,.111-1.444-.556-2.223a4.01,4.01,0,0,0-2.89-1c-4.224,0-4.669,4.113-4.669,7.448,0,3.445.445,7.225,4.78,7.225a3.643,3.643,0,0,0,2.668-.778,2.866,2.866,0,0,0,.778-2.446,3.48,3.48,0,0,1,.444-2.112,2.367,2.367,0,0,1,2.112-.889c2.113,0,3.113,1.556,3.113,3.557,0,5.113-4.78,7.448-9.337,7.448a10.644,10.644,0,0,1-8.115-3.224c-2-2.112-2.89-5.78-2.89-8.781a16.8,16.8,0,0,1,2-8.337,9.591,9.591,0,0,1,7.892-4,7.483,7.483,0,0,1,5.78,2.446,1.963,1.963,0,0,1,2.112-2.224Z" fill="#999"/>
      <path id="Trazado_363" data-name="Trazado 363" d="M550.948,985.219c0,1.556-1.445,2.223-2.89,2.223a2.964,2.964,0,0,1-3-2.89c0-3.446,4.668-4,7.225-4,1.778,0,4,.112,5.447,1,2,1.112,2.223,3.112,2.223,5.113V993c0,.445-.112,1.556.556,1.556h.778a1.7,1.7,0,0,1,1.667,1.89c0,1.89-1.89,2.557-3.446,2.557s-3.224-.556-3.779-2.112a8.644,8.644,0,0,1-5.78,2.112c-3,0-6-1.668-6-5,0-8,10.449-3.891,10.449-8.337a2.131,2.131,0,0,0-2.334-1.89c-.556,0-1.112.111-1.112.778v.667Zm3.446,5.669c-1,1-4.891.556-4.891,2.334,0,1.112,1,1.557,1.889,1.557,2,0,3-1.223,3-3.224v-.667Z" fill="#999"/>
      <path id="Trazado_364" data-name="Trazado 364" d="M567.4,987.331c0-.445.111-2.334-.555-2.334-.334,0-.667.222-1.112.222-1.112,0-1.556-.889-1.556-1.89,0-1.222.555-2.334,1.667-2.334,1,.111,1.667.334,2.335.334a15.363,15.363,0,0,0,2.223-.334c1,0,1.111.667,1.111,1.445V985a5.133,5.133,0,0,1,5.447-4.335,4.342,4.342,0,0,1,4.446,4.223,3.12,3.12,0,0,1-2.89,3.335A2.19,2.19,0,0,1,576.181,986a2.963,2.963,0,0,1,.333-1.334c-3.779-.222-3.89,4.891-3.89,7.559,0,.445-.111,2.334.667,2.334.333,0,.666-.222,1.111-.222,1.112,0,1.445.889,1.445,1.89,0,1.334-.555,2.334-1.667,2.334-1.779,0-3.112-.333-4.557-.333-1.223,0-2.557.333-3.78.333-1.112,0-1.667-1-1.667-2.334,0-1,.444-1.89,1.556-1.89.445,0,.778.222,1.112.222.666,0,.555-1.889.555-2.334v-4.891Z" fill="#999"/>
      <path id="Trazado_365" data-name="Trazado 365" d="M585.852,987.331c0-.445.111-2.334-.556-2.334-.445,0-.778.222-1.112.222-1.111,0-1.556-.889-1.556-1.89,0-1.222.556-2.334,1.667-2.334,1,.111,1.668.334,2.335.334a15.363,15.363,0,0,0,2.223-.334c1,0,1,.667,1,1.445V985a5.321,5.321,0,0,1,5.558-4.335,4.343,4.343,0,0,1,4.447,4.223,3.121,3.121,0,0,1-2.891,3.335A2.284,2.284,0,0,1,594.522,986a3.152,3.152,0,0,1,.445-1.334c-3.78-.222-3.891,4.891-3.891,7.559,0,.445-.111,2.334.667,2.334.333,0,.667-.222,1.111-.222,1.112,0,1.446.889,1.446,1.89,0,1.334-.556,2.334-1.668,2.334-1.778,0-3.112-.333-4.557-.333-1.223,0-2.557.333-3.78.333-1.111,0-1.667-1-1.667-2.334,0-1,.445-1.89,1.556-1.89.334,0,.667.222,1.112.222.667,0,.556-1.889.556-2.334v-4.891Z" fill="#999"/>
      <path id="Trazado_366" data-name="Trazado 366" d="M607.416,990.666c-.666,0-1.556-.223-1.556.778a3.37,3.37,0,0,0,3.446,3.335c2.89,0,2.668-2.668,5.336-2.668a2.072,2.072,0,0,1,2.223,2.112,4.571,4.571,0,0,1-2.223,3.446A10.428,10.428,0,0,1,609.2,999c-5.447,0-8.893-3.669-8.893-9.115,0-5.336,3.335-9.338,8.782-9.338a8.444,8.444,0,0,1,5.669,1.779,7.89,7.89,0,0,1,2.445,5.891c0,2-.222,2.446-2.223,2.446ZM610.529,987c.556,0,1.111.111,1.111-.556a2.2,2.2,0,0,0-.667-1.445,2.721,2.721,0,0,0-1.778-.667,2.943,2.943,0,0,0-2.335.889c-.333.333-.889.889-.889,1.334,0,.556,1.112.445,1.445.445Z" fill="#999"/>
      <path id="Trazado_367" data-name="Trazado 367" d="M626.2,992.222c0,.445-.111,2.334.667,2.334.334,0,.667-.222,1.112-.222,1.111,0,1.445.889,1.445,1.89,0,1.334-.556,2.334-2,2.334s-2.779-.333-4.113-.333-2.557.333-3.668.333c-1.334,0-1.89-1-1.89-2.334,0-1,.334-1.89,1.445-1.89.445,0,.778.222,1.112.222.778,0,.667-1.889.667-2.334v-6.114c0-1.223,0-1.334-1.112-1.334-1.334,0-2.112-.333-2.112-1.778s.556-2,1.89-2c1,0,1.334.111,1.334-1.111.111-3.669,3.334-5.225,6.669-5.225a7.443,7.443,0,0,1,3.446.778,3.452,3.452,0,0,1,2,3,2.451,2.451,0,0,1-2.557,2.557,2.115,2.115,0,0,1-2.223-2,2.6,2.6,0,0,1,.223-.889,1.209,1.209,0,0,0-.668-.111c-1.222,0-1.667.778-1.667,1.89s.111,1.111,1.223,1.111c1.334,0,2.334.111,2.334,1.778,0,1.557-.667,2-2.112,2-1.334,0-1.445-.111-1.445,1.334v6.114Z" fill="#999"/>
      <path id="Trazado_368" data-name="Trazado 368" d="M647.878,989.554c0,5.558-2.779,9.449-8.67,9.449-5.781,0-8.893-3.557-8.893-9.226,0-5.781,3.112-9.227,8.893-9.227,5.446,0,8.67,3.557,8.67,9Zm-8.67-4.78c-2.779,0-3.446,2.779-3.446,5,0,2,.667,5,3.112,5a2.769,2.769,0,0,0,2.779-1.446,8.229,8.229,0,0,0,.778-3.556c0-2.224-.556-5-3.223-5Z" fill="#999"/>
      <path id="Trazado_369" data-name="Trazado 369" d="M650.323,987.331c0-.445.111-2.334-.667-2.334-.333,0-.666.222-1.111.222-1.112,0-1.445-.889-1.445-1.89,0-1.222.556-2.334,3.112-2.334a12.013,12.013,0,0,0,2.112.334,16.9,16.9,0,0,0,2.335-.334c1.111,0,.889,1,.889,1.89v8a5.2,5.2,0,0,0,.445,2.557,2.3,2.3,0,0,0,1.889,1,2.791,2.791,0,0,0,2.446-1.333,6.292,6.292,0,0,0,.778-3.447v-2.334c0-.445.111-2.334-.667-2.334-.334,0-.667.222-1.112.222-1.111,0-1.445-.889-1.445-1.89,0-1.222.556-2.334,2.89-2.334a12.013,12.013,0,0,0,2.112.334,16.916,16.916,0,0,0,2.335-.334c1.222,0,1.111.778,1.111,1.668v9.559c0,.445-.111,2.334.556,2.334.334,0,.667-.222,1.112-.222,1.111,0,1.556.889,1.556,1.89,0,1.334-.667,2.334-2,2.334-.889,0-1.667-.333-2.445-.333-.668,0-1.446.333-2.112.333-1.223,0-1.223-1.112-1.223-1.778v-.668A7.118,7.118,0,0,1,655.881,999a5.867,5.867,0,0,1-4.779-2.112c-.89-1.445-.779-3.446-.779-5.114v-4.446Z" fill="#999"/>
      <path id="Trazado_370" data-name="Trazado 370" d="M674.111,987.331c0-.445.111-2.334-.667-2.334-.333,0-.666.222-1.111.222-1.112,0-1.445-.889-1.445-1.89,0-1.222.556-2.334,1.667-2.334,1,.111,1.667.334,2.334.334a15.353,15.353,0,0,0,2.224-.334c1,0,1,.667,1,1.445V985a5.321,5.321,0,0,1,5.558-4.335,4.246,4.246,0,0,1,4.335,4.223c0,1.668-1,3.335-2.89,3.335A2.253,2.253,0,0,1,682.782,986a3.163,3.163,0,0,1,.444-1.334c-3.779-.222-3.89,4.891-3.89,7.559,0,.445-.111,2.334.667,2.334.333,0,.667-.222,1.111-.222,1.112,0,1.445.889,1.445,1.89,0,1.334-.555,2.334-1.667,2.334-1.89,0-3.224-.333-4.557-.333-1.223,0-2.557.333-3.78.333-1.111,0-1.667-1-1.667-2.334,0-1,.333-1.89,1.445-1.89.445,0,.778.222,1.111.222.778,0,.667-1.889.667-2.334v-4.891Z" fill="#999"/>
      <path id="Trazado_371" data-name="Trazado 371" d="M772.6,989.443a1.162,1.162,0,0,1-.334.667l-18.341,18.23c-.667.778-1.111.333-.889-.222a19.683,19.683,0,0,0,1.778-4.113,13.926,13.926,0,0,0,.556-7.448,6.106,6.106,0,0,0-6-4.446,6.234,6.234,0,0,0-6.336,6.225,5.452,5.452,0,0,0,1.779,4.335,2.952,2.952,0,0,0,2.89.667c.334,0,1-.445,1,.667,0,1.223-1.112,2.779-1.779,3.557a10.6,10.6,0,0,1-6.781,2.556,8.558,8.558,0,0,1-6.447-3,15.447,15.447,0,0,1-3-5.891,34.135,34.135,0,0,1-1.779-11.783,37.719,37.719,0,0,1,1.779-11.671,18.464,18.464,0,0,1,3-6.114,8.393,8.393,0,0,1,6.447-3,9.958,9.958,0,0,1,6.781,2.668,6.042,6.042,0,0,1,1.779,3.557c0,1-.667.556-1,.556a2.952,2.952,0,0,0-2.89.667,5.579,5.579,0,0,0-1.779,4.335,6.174,6.174,0,0,0,6.336,6.225,5.991,5.991,0,0,0,6-4.446,13.5,13.5,0,0,0-.556-7.337,21.49,21.49,0,0,0-1.778-4.224c-.222-.444.222-1,.889-.222l18.341,18.23a1.225,1.225,0,0,1,.334.778Z" fill="#999"/>
      <path id="Trazado_372" data-name="Trazado 372" d="M705.236,989.221a1.139,1.139,0,0,0,.444.778l19.453,18.674c.556.445.667,0,.556-.333-.111-.222-.222-.333-.778-1.223-5.336-7.67-5.225-17.9-5.225-17.9s-.111-10.227,5.225-17.785a6.787,6.787,0,0,0,.778-1.334c.111-.334,0-.778-.556-.334L705.68,988.443a1.136,1.136,0,0,0-.444.778Z" fill="#999"/>
    </g>
  </g>
</svg>
