<svg xmlns="http://www.w3.org/2000/svg" width="49.746" height="49.868" viewBox="0 0 49.746 49.868">
  <g id="Grupo_331" data-name="Grupo 331" transform="translate(-261.824 -5665.563)">
    <path id="Trazado_500" data-name="Trazado 500" d="M274.44,5665.565a7.1,7.1,0,1,0,6.923,7.266,7.13,7.13,0,0,0-6.923-7.266Zm12.25,3.668h0a1.779,1.779,0,0,0,0,3.557h8.894a5.3,5.3,0,0,1,5.323,5.337v5.323a1.778,1.778,0,0,0,3.557,0v-5.323a8.917,8.917,0,0,0-8.88-8.894ZM263.7,5681.67h0a1.777,1.777,0,0,0-1.784,1.784v7.11a1.776,1.776,0,0,0,1.784,1.77h21.327a1.775,1.775,0,0,0,1.769-1.77v-7.11a1.775,1.775,0,0,0-1.769-1.783Zm35.609,7.121a7.1,7.1,0,1,0,6.926,7.252,7.125,7.125,0,0,0-6.926-7.252Zm-35.71,7.092h0a1.776,1.776,0,0,0-1.773,1.784v5.326a8.9,8.9,0,0,0,8.879,8.88h10.664a1.779,1.779,0,0,0,0-3.557H270.7a5.292,5.292,0,0,1-5.323-5.323v-5.326a1.776,1.776,0,0,0-1.783-1.784Zm24.877,8.884h0a1.775,1.775,0,0,0-1.784,1.784v7.11h0a1.777,1.777,0,0,0,1.783,1.77H309.8a1.775,1.775,0,0,0,1.773-1.77v-7.11h0a1.777,1.777,0,0,0-1.773-1.784Z" fill="#2190ed"/>
  </g>
</svg>
