<?xml version="1.0" encoding="utf-8"?>
<!-- Generator: Adobe Illustrator 25.4.1, SVG Export Plug-In . SVG Version: 6.00 Build 0)  -->
<svg version="1.1" id="Capa_1" xmlns="http://www.w3.org/2000/svg" xmlns:xlink="http://www.w3.org/1999/xlink" x="0px" y="0px"
	 viewBox="0 0 512 512" style="enable-background:new 0 0 512 512;" xml:space="preserve">
<style type="text/css">
	.st0{fill:#4188C8;}
	.st1{fill:#FFFFFF;}
</style>
<g>
	
		<ellipse id="BLUECIRCLE" transform="matrix(0.7071 -0.7071 0.7071 0.7071 -106.0387 256)" class="st0" cx="256" cy="256" rx="256" ry="256"/>
	<path id="STAR" class="st1" d="M209.3,104.7l6.3,1.3l7.6,5l22.7,17.7l36.6,31.5l5,2.5h17.7l56.7-6.3h12.6l6.3,1.3l5,2.5l1.3,2.5
		v6.3l-2.5,6.3l-3.8,11.3l-8.8,21.4l-11.3,25.2l-6.3,13.9l-1.3,5v3.8v5l5,13.9l15.1,34l5,10.1l2.5,6.3l2.5,6.3l1.3,5l1.3,8.8
		l-2.5,3.8l-2.5,1.3l-2.5,1.3h-18.9l-18.9-1.3l-15.1-1.3l-15.1-1.3l-8.8-1.3h-3.8h-3.8H290l-2.5,1.3l-2.5,1.3l-2.5,1.3l-6.3,5
		L262.3,367l-10.1,8.8l-7.6,7.6l-8.8,8.8l-6.3,3.8l-3.8,2.5l-3.8,2.5l-5,2.5l-5,2.5l-3.8,1.3h-2.5l-2.5-1.3l-1.3-1.3l-1.3-2.5
		l-3.8-11.3l-3.8-12.6l-5-21.4l-2.5-10.1l-5-21.4l-1.3-6.3l-1.3-3.8l-1.3-2.5l-2.5-1.3l-2.5-2.5l-3.8-2.5l-10.1-6.3l-12.6-7.6
		l-11.3-6.3l-8.8-6.3l-6.3-3.8l-7.6-5l-3.8-2.5l-3.8-2.5l-3.8-2.5l-2.5-2.5l-1.3-2.5V256l1.3-1.3l1.3-2.5l2.5-2.5l3.8-2.5l5-3.8
		l5-3.8l8.8-5l10.1-6.3l10.1-6.3l7.6-3.8l6.3-3.8l6.3-3.8l5-2.5l3.8-2.5l2.5-2.5l1.3-2.5l1.3-5l1.3-3.8l12.6-41.6l2.5-12.6l3.8-13.9
		l2.5-8.8l2.5-5l2.5-3.8L209.3,104.7z"/>
</g>
</svg>
