<svg xmlns="http://www.w3.org/2000/svg" width="210.222" height="33.134" viewBox="0 0 210.222 33.134">
  <g id="GREENPEACE" transform="translate(-1139.85 -972.648)">
    <g id="Grupo_154" data-name="Grupo 154">
      <path id="Trazado_461" data-name="Trazado 461" d="M1158.2,979.55l0-.006h0Z" fill="#999"/>
      <path id="Trazado_462" data-name="Trazado 462" d="M1165.934,987.325a2.658,2.658,0,0,0-1.631-1.562c-.447-.149-1.376-.459-7.7.405-6.984.954-7.22,1.425-7.736,2.457a2.339,2.339,0,0,0,2.959,3.218c.513-.205.2-.122.178-.112a67.536,67.536,0,0,1,8.71-1.339c.105-.011-.018.124-.068.27a8.926,8.926,0,0,1-.66,1.786,1.381,1.381,0,0,1-.671.531c-2.412.93-6.792,2.46-8.963,2.54a5.672,5.672,0,0,1-5.583-3.445c-.313-.684-.493-1.722.553-4.232.916-2.2,4.3-5.119,5.744-6.366.267-.23.5-.428.678-.591,2.55-2.3,4.422-3.3,5.4-3.511a7.342,7.342,0,0,1,1.056,2.17,2.339,2.339,0,0,0,4.489-1.315c-.4-1.354-1.966-5.76-5.486-5.575-2.329.122-5.218,1.722-8.587,4.755-.145.129-.358.314-.6.526-1.98,1.709-5.664,4.89-7.006,8.108-1.364,3.276-1.515,5.737-.486,7.98a10.289,10.289,0,0,0,10.008,6.17,33.6,33.6,0,0,0,8.358-2.068v5.317a2.339,2.339,0,1,0,4.677,0v-8.116C1166.738,989.424,1166.2,988.009,1165.934,987.325Z" fill="#999"/>
      <path id="Trazado_463" data-name="Trazado 463" d="M1169.52,985.523Z" fill="#999"/>
      <path id="Trazado_464" data-name="Trazado 464" d="M1179.259,989.693l-.123-.106a12.8,12.8,0,0,0,2.091-1.385c2.23-1.982,2.6-6.078,2.469-8.186-.208-3.327-3.615-6.716-6.75-6.716a33.163,33.163,0,0,0-6.16,1.132,2.724,2.724,0,0,0,.417,5.342,14.563,14.563,0,0,1-.456,2.142,22.359,22.359,0,0,0-.858,3.64l-.37-.033a2.723,2.723,0,0,0-.661,5.4,66.718,66.718,0,0,0-.227,8.4,2.338,2.338,0,0,0,4.676-.085c-.043-2.359-.02-5.13.071-6.644l2.513,1.4,5.888,5.136a2.728,2.728,0,1,0,3.586-4.112Zm-1.009-9.337a7.458,7.458,0,0,1-.676,3.788,14.532,14.532,0,0,1-2.955,1.57,18.051,18.051,0,0,1,.47-2.062,26.27,26.27,0,0,0,.983-4.8,6.986,6.986,0,0,1,.782-.088A2.667,2.667,0,0,1,1178.25,980.356Z" fill="#999"/>
      <path id="Trazado_465" data-name="Trazado 465" d="M1203.385,980.623a3.118,3.118,0,0,0-1.428-6.071l-11.694,3.119a3.107,3.107,0,0,0-1.469,5.251c-.077,1.539-.184,2.913-.3,3.544a2.715,2.715,0,0,0-.367,1.407c-.041.143-.082.289-.125.437-1,3.5-1.309,4.846-1.158,5.9.308,2.154,3.336,5.021,5.288,5.509a21.631,21.631,0,0,0,6.91.259,2.728,2.728,0,1,0-1.324-5.292.312.312,0,0,1,.047-.011,20.776,20.776,0,0,1-4.175-.225,5.87,5.87,0,0,1-1.258-1.162c.141-.709.474-1.921.736-2.845l8.469-.522a2.729,2.729,0,0,0-.336-5.447l-7.062.437c.046-.619.083-1.253.112-1.857Z" fill="#999"/>
      <path id="Trazado_466" data-name="Trazado 466" d="M1225.585,976.873a3.12,3.12,0,0,0-3.75-2.321l-13.252,3.119a3.107,3.107,0,0,0-1.469,5.251c-.078,1.54-.184,2.913-.3,3.544a2.712,2.712,0,0,0-.368,1.409c-.04.142-.082.287-.124.435-1,3.5-1.309,4.846-1.158,5.9.307,2.154,3.335,5.021,5.287,5.509a21.632,21.632,0,0,0,6.91.259,2.727,2.727,0,1,0-1.323-5.292.312.312,0,0,1,.047-.011,20.769,20.769,0,0,1-4.186-.227,5.448,5.448,0,0,1-1.118-.9c-.149-.144-.13-.284-.048-.64.153-.66.4-1.547.6-2.286.017-.06.033-.115.049-.174l.128-.008,8.341-.515a2.729,2.729,0,0,0-.336-5.447l-7.061.437c.043-.591.079-1.2.107-1.776l10.694-2.516A3.119,3.119,0,0,0,1225.585,976.873Z" fill="#999"/>
      <path id="Trazado_467" data-name="Trazado 467" d="M1232.065,974.545c.01.024.031.074.058.149l.006.012Z" fill="#999"/>
      <path id="Trazado_468" data-name="Trazado 468" d="M1241.061,973.951a2.337,2.337,0,0,0-2.4,2.275l-.389,11.134c-.019.457-.05,1.053-.085,1.716-.244-.5-.451-.917-.592-1.175a16.2,16.2,0,0,0-1.032-1.511,34.632,34.632,0,0,1-2.706-4.148,20.8,20.8,0,0,1-1.157-2.9,14.428,14.428,0,0,0-.577-4.651,2.728,2.728,0,0,0-5.122,1.877l-.023-.067a13.189,13.189,0,0,1,.25,3.837,68.5,68.5,0,0,1-.968,9.744c-.547,2.324-1.069,6.478-1.091,6.653a2.729,2.729,0,0,0,5.415.677c.005-.04.508-4.041.987-6.079a31.3,31.3,0,0,0,.515-3.157c.248.347.484.673.693.96.281.387.632.87.717,1.015.6,1.1,2.956,6.254,3.813,8.147a2.3,2.3,0,0,0,.323.506,2.333,2.333,0,0,0,4.661.1h0c.022-.341.523-8.371.652-11.348l.391-11.212A2.338,2.338,0,0,0,1241.061,973.951Z" fill="#999"/>
      <path id="Trazado_469" data-name="Trazado 469" d="M1264.36,986.163c2.761-1.656,2.9-5.877,2.732-7.225-.344-2.757-4.141-4.762-6.634-5.095a24.7,24.7,0,0,0-8.168.058c-2.192.548-6.456,2.1-6.637,2.162a2.728,2.728,0,1,0,1.866,5.128c.7-.254,2.2-.786,3.633-1.254l-.307,4.906-.969.219a2.726,2.726,0,0,0,.619,5.384l-.009.147c-.132,2.627-.133,8.571-.133,8.822a2.339,2.339,0,1,0,4.677,0c0-.061,0-6.077.128-8.588l.084-1.349c.763-.157,1.455-.292,1.893-.359A26.853,26.853,0,0,0,1264.36,986.163Zm-8.766-2.315.3-4.863a28.4,28.4,0,0,1,3.839.268,3.417,3.417,0,0,1,1.875.818,2.318,2.318,0,0,1-.251,1.522,22.077,22.077,0,0,1-5.057,2.133C1256.1,983.757,1255.858,983.8,1255.594,983.848Z" fill="#999"/>
      <path id="Trazado_470" data-name="Trazado 470" d="M1278.164,994.075a2.34,2.34,0,0,0-3.138,1.045l.034-.064a2.033,2.033,0,0,1-1.841.851c-2.57,0-3.758-.247-4.235-.884-.374-.5-.386-1.987.176-3.713a10.768,10.768,0,0,1,2.572-.117c1.5.249,3.885-.093,7.011-.685.219-.041.424-.08.512-.095a11.854,11.854,0,0,0,2.851-1.031,2.728,2.728,0,0,0-2.44-4.88h0a8.146,8.146,0,0,1-1.319.531c-.138.023-.339.061-.62.114-3.64.689-4.76.711-5.1.663a8.527,8.527,0,0,0-1.048-.1c.514-1.124,1.037-2.256,1.5-3.245.081-.013.161-.014.241-.034l6.259-1.533a40.746,40.746,0,0,0,6.686-1.95,3.118,3.118,0,1,0-2.17-5.846,35.856,35.856,0,0,1-5.39,1.633l-.255.019-.248.061-6.367,1.559a3.108,3.108,0,0,0-2.349,2.728c-.731,1.564-2.529,5.428-3.68,8.048a2.749,2.749,0,0,0-.448,1.033c-.181.427-.328.788-.427,1.053-.614,1.636-1.812,5.75.318,8.589,1.907,2.543,5.118,2.756,7.977,2.756a6.672,6.672,0,0,0,5.99-3.372A2.339,2.339,0,0,0,1278.164,994.075Z" fill="#999"/>
      <path id="Trazado_471" data-name="Trazado 471" d="M1297.974,974.654a3.5,3.5,0,0,0-3.13-.875c-1.945.456-3.339,2.407-5.964,8.353-.888,2.011-1.618,3.649-2.227,5a3.069,3.069,0,0,0-1.9,4.175c-.308.665-.554,1.189-.758,1.626l-.258.552c-.644,1.38-1.874,3.652-1.887,3.675a2.339,2.339,0,0,0,4.114,2.227c.053-.1,1.308-2.417,2.012-3.924l.254-.543c.223-.476.492-1.051.837-1.8l6.673-.418c-.007,2.877-.041,5.592-.042,5.638a2.339,2.339,0,0,0,4.677.06c0-.308.1-7.591,0-11.011C1300.083,977.233,1299.073,975.57,1297.974,974.654Zm-4.815,9.368c.816-1.849,1.909-3.99,1.909-3.99l.145.262s.31,2.992.446,6.171l-3.685.231C1292.336,985.882,1292.728,985,1293.159,984.022Z" fill="#999"/>
      <path id="Trazado_472" data-name="Trazado 472" d="M1350.052,976.72a3.12,3.12,0,0,0-3.448-2.751c-.261.03-6.429.723-7.823.922l-2.874.419c-1.728.254-4.339.637-4.651.675-.873.1-2.439.369-3.279.516a2.721,2.721,0,0,0-2.7,1.636l-.006.015a3.062,3.062,0,0,0-.271.637,22.9,22.9,0,0,0-1.1,2.877c-.071.219-.34.956-.581,1.62-.456,1.25-.909,2.506-1.312,3.675a2.687,2.687,0,0,0-.3.868,33.246,33.246,0,0,0-.949,3.215,7.632,7.632,0,0,0-.125.936,2.724,2.724,0,0,0-.507-.252c-1.412-.528-1.993-.42-3.51,1.6v-.005a6.877,6.877,0,0,1-3.83.476,11.62,11.62,0,0,1-2.291-.877,14.876,14.876,0,0,1-3.213-2,4.743,4.743,0,0,1-.622-3.5,7.573,7.573,0,0,1,.856-1.906,16.56,16.56,0,0,1,5.243-4.127c1.594-.854,2.171-.505,2.318-.262s-.147,1.12-.147,1.12c-.146,2.1-.325,2.4.529,3.641a2.728,2.728,0,0,0,3.794.7,7.659,7.659,0,0,0,2.22-3.3,6.509,6.509,0,0,0-.384-5.743,4.322,4.322,0,0,0-3.395-2.165c-.167-.011-.365-.032-.574-.053a10.925,10.925,0,0,0-6.938,1.248,21.948,21.948,0,0,0-6.709,5.274,8.91,8.91,0,0,0-2.587,4.672c-.334,2.006-.521,5.724,1.992,8.088a27.273,27.273,0,0,0,5.331,3.568c.494.277.959.538,1.392.792a10.975,10.975,0,0,0,7.373,1.329c2.226-.279,3.632-2.5,4.405-4.23a6.344,6.344,0,0,0,.656,1.035c1.968,2.948,5.784,2.957,8.34,2.957a11.544,11.544,0,0,0,6.634-2.346,2.728,2.728,0,0,0-3.394-4.273l.017-.014a6.145,6.145,0,0,1-3.257,1.176c-2.323,0-3.609-.184-3.824-.547l-.141-.239-.122-.133a1.882,1.882,0,0,1-.2-1.493c.073-.334.2-.789.359-1.3.4-.018.772-.04,1.033-.061.783-.066,4.259-.25,4.71-.252l4.656-.064a2.728,2.728,0,1,0-.087-5.456l-4.569.065c-.509,0-2.426.1-3.808.18.018-.047.038-.1.055-.149.535-1.466.685-1.885.756-2.188.027-.083.072-.207.137-.373.865-.15,2.043-.345,2.64-.415.343-.041,2.135-.3,4.828-.7l2.85-.416c1.043-.149,5.452-.652,7.638-.9A3.119,3.119,0,0,0,1350.052,976.72Z" fill="#999"/>
    </g>
  </g>
</svg>
