<svg xmlns="http://www.w3.org/2000/svg" width="171.839" height="39.301" viewBox="0 0 171.839 39.301">
  <g id="HEINEKEN" transform="translate(-274.851 -960.293)">
    <g id="Grupo_141" data-name="Grupo 141">
      <path id="Trazado_373" data-name="Trazado 373" d="M345.745,978.625v20.969h4.494V987.987c.932.682,6.782,11.205,7.863,11.607h3.557c.771-.14,1.136-.775,1.124-1.872V978H358.1c0,2.477-.224,9.237.187,11.295-.508-.184-.334.005-1.114-1.319l-3.086-4.778c-2.915-4.613-2.533-5.136-7.782-5.136-.431,0-.562.13-.562.561Z" fill="#999"/>
      <path id="Trazado_374" data-name="Trazado 374" d="M428.966,999.533h4.458l-.152-11.608c1.074.719,4.957,8.218,8.051,11.608h3.323c.855-.113,1.166-.5,1.182-1.673.036-2.518-.4-17.2-.036-18.052a1.055,1.055,0,0,1,.852-.833l.046-.973h-5.367v11.234c-.517-.379-5.963-9.128-6.1-9.256A4.006,4.006,0,0,0,431.962,978h-3v21.531Z" fill="#999"/>
      <path id="Trazado_375" data-name="Trazado 375" d="M387.5,978.625v19.846c0,.688.707,1,1.672,1.123h4.319v-8.986c.78.208.317.1,1.2,1.423l3.294,5.131c1.243,1.768,1.988,2.3,3.473,2.432h4.088c.331,0,.681,0,1.053,0-.156-.669-7.655-12.1-8.051-12.731a21.657,21.657,0,0,0,1.873-2.059c.626-.821,1.333-1.3,1.98-2.139.417-.538.558-.626.959-1.1l2.677-3.5c-6.329,0-5.111-.823-9.978,5a17.853,17.853,0,0,1-2.566,2.489v-7.489h-5.429c-.432,0-.562.13-.562.561Z" fill="#999"/>
      <path id="Trazado_376" data-name="Trazado 376" d="M314.666,997.722c-.068,1.378.607,1.829,2.06,1.872h10.859c.726-.011,1.154-.461,1.31-1.31v-2.621h-7.114c-.643.04-1.045-.182-1.123-.749V990.42h6.552V986.3h-6.552v-4.119h8.237c0-2.2.474-3.71-1.123-4.119H314.666v19.658Z" fill="#999"/>
      <path id="Trazado_377" data-name="Trazado 377" d="M334.138,998.658c0,.606.679.936,1.31.936h4.493v-21.53h-5.8v20.594Z" fill="#999"/>
      <path id="Trazado_378" data-name="Trazado 378" d="M368.579,997.722c-.068,1.378.607,1.829,2.06,1.872H381.5c.726-.011,1.154-.461,1.31-1.31v-2.621h-7.114c-.644.04-1.045-.182-1.124-.749V990.42h6.553V986.3H374.57v-4.119h8.238c0-2.2.474-3.71-1.123-4.119H368.579v19.658Z" fill="#999"/>
      <path id="Trazado_379" data-name="Trazado 379" d="M409.513,997.722c-.069,1.378.607,1.829,2.059,1.872h10.859c.727-.011,1.155-.461,1.311-1.31v-2.621h-7.115c-.643.04-1.044-.182-1.123-.749V990.42h6.553V986.3H415.5v-4.119h8.238c0-2.2.474-3.71-1.124-4.119H409.513v19.658Z" fill="#999"/>
      <path id="Trazado_380" data-name="Trazado 380" d="M292.083,980.062,292,999.275h5.853v-9.3l5.075-.01-.02,9.31h5.8V978h-5.8v7.676c.03.359-.154.585-.562.562h-3.932c-.376.009-.559-.184-.561-.562V978h-6.74c-.09,1.43,1.009.8.969,2.06Z" fill="#999"/>
      <path id="Trazado_381" data-name="Trazado 381" d="M283.007,974.076l4.113,3.063-1.615,5.6c-1.6,1.134-3.229,2.269-4.788,3.4-.6.191-.593-.309-.288-1.154l2.711-8.594-8.133-6.056c-.273-.227-.239-.57.519-.577l9.863.115,3-9.171c.2-.578.583-.489.75-.058l3,9.345h10.127c.285,0,.344.215.131.382l-4.951,3.54h-5.6l-1.539-4.745c-.1-.273-.278-.267-.37.007l-1.61,4.68-5.275.027c-.245-.006-.239.087-.049.2Z" fill="#999"/>
    </g>
  </g>
</svg>
