<svg xmlns="http://www.w3.org/2000/svg" width="213.948" height="62.62" viewBox="0 0 213.948 62.62">
  <g id="IAEA" transform="translate(-1424.161 -950.883)">
    <g id="Grupo_471" data-name="Grupo 471">
      <g id="Grupo_143" data-name="Grupo 143">
        <path id="Trazado_402" data-name="Trazado 402" d="M1511.934,985.963h-4.029V969.792h4.029v16.171Z" fill="#999"/>
        <path id="Trazado_403" data-name="Trazado 403" d="M1521.018,979.852h4.924l-2.423-6.363-2.5,6.363Zm.25-10.06h4.582l6.872,16.171h-4.4l-1.251-3.324h-7.149l-1.343,3.324h-4.239l6.925-16.171Z" fill="#999"/>
        <path id="Trazado_404" data-name="Trazado 404" d="M1549.534,972.655h-10.269v3.434h9.427V978.9h-9.427v4.158h10.743v2.907H1535.3V969.792h14.232v2.863Z" fill="#999"/>
        <path id="Trazado_405" data-name="Trazado 405" d="M1558.473,979.852h4.924l-2.422-6.363-2.5,6.363Zm.25-10.06h4.582l6.872,16.171h-4.4l-1.251-3.324h-7.148l-1.343,3.324h-4.24l6.925-16.171Z" fill="#999"/>
      </g>
      <g id="Grupo_144" data-name="Grupo 144">
        <path id="Trazado_406" data-name="Trazado 406" d="M1508.844,995.379H1507.7v-5.391h1.141v5.391Z" fill="#999"/>
        <path id="Trazado_407" data-name="Trazado 407" d="M1513.111,991.623a1.294,1.294,0,0,1,.4,1.072v2.684h-1.089v-2.425a1.088,1.088,0,0,0-.086-.482.606.606,0,0,0-.6-.308.741.741,0,0,0-.742.45,1.532,1.532,0,0,0-.1.607v2.158h-1.06V991.4h1.026v.582a1.778,1.778,0,0,1,.388-.443,1.367,1.367,0,0,1,.832-.241,1.575,1.575,0,0,1,1.029.325Z" fill="#999"/>
        <path id="Trazado_408" data-name="Trazado 408" d="M1514.078,992.172v-.743h.566v-1.111h1.052v1.111h.661v.743h-.661v2.106a.474.474,0,0,0,.064.307.716.716,0,0,0,.388.059h.1l.108-.007v.779l-.5.018a1.369,1.369,0,0,1-1.029-.256.75.75,0,0,1-.18-.552v-2.454Z" fill="#999"/>
        <path id="Trazado_409" data-name="Trazado 409" d="M1518.069,992.373a1.132,1.132,0,0,0-.254.614h1.653a.892.892,0,0,0-.258-.625.789.789,0,0,0-.567-.216.736.736,0,0,0-.574.227Zm1.488-.9a1.6,1.6,0,0,1,.672.589,1.987,1.987,0,0,1,.309.823,5.1,5.1,0,0,1,.034.79h-2.783a.984.984,0,0,0,.384.841.92.92,0,0,0,.53.15.768.768,0,0,0,.533-.183.86.86,0,0,0,.2-.274h1.086a1.318,1.318,0,0,1-.377.72,1.863,1.863,0,0,1-1.462.582,2.088,2.088,0,0,1-1.369-.49,1.955,1.955,0,0,1-.593-1.595,2.191,2.191,0,0,1,.533-1.587,1.855,1.855,0,0,1,1.391-.552,2.17,2.17,0,0,1,.914.186Z" fill="#999"/>
        <path id="Trazado_410" data-name="Trazado 410" d="M1523.545,991.3l.093,0v1.068c-.067-.007-.127-.012-.179-.015l-.127,0a.885.885,0,0,0-.861.409,1.554,1.554,0,0,0-.124.71v1.905h-1.07v-3.986h1.015v.7a2.217,2.217,0,0,1,.428-.545,1.181,1.181,0,0,1,.776-.245.327.327,0,0,1,.049,0Z" fill="#999"/>
        <path id="Trazado_411" data-name="Trazado 411" d="M1527.544,991.623a1.3,1.3,0,0,1,.4,1.072v2.684h-1.089v-2.425a1.074,1.074,0,0,0-.086-.482.605.605,0,0,0-.6-.308.743.743,0,0,0-.743.45,1.532,1.532,0,0,0-.1.607v2.158h-1.06V991.4h1.026v.582a1.781,1.781,0,0,1,.388-.443,1.367,1.367,0,0,1,.832-.241,1.578,1.578,0,0,1,1.03.325Z" fill="#999"/>
        <path id="Trazado_412" data-name="Trazado 412" d="M1531.169,993.441a1.179,1.179,0,0,1-.2.1,1.737,1.737,0,0,1-.28.07l-.238.044a1.566,1.566,0,0,0-.481.142.476.476,0,0,0-.247.443.466.466,0,0,0,.15.387.588.588,0,0,0,.369.117,1.09,1.09,0,0,0,.63-.2.832.832,0,0,0,.3-.721v-.387Zm-.645-.487a1.669,1.669,0,0,0,.422-.091.314.314,0,0,0,.227-.3.345.345,0,0,0-.175-.337,1.08,1.08,0,0,0-.507-.095.671.671,0,0,0-.534.183.748.748,0,0,0-.149.366h-1.026a1.515,1.515,0,0,1,.3-.86,1.756,1.756,0,0,1,1.448-.526,2.615,2.615,0,0,1,1.186.259.992.992,0,0,1,.518.98v1.829c0,.127,0,.281.008.461a.578.578,0,0,0,.063.278.372.372,0,0,0,.157.12v.154H1531.3a1.062,1.062,0,0,1-.067-.227,2.3,2.3,0,0,1-.03-.241,2.156,2.156,0,0,1-.508.4,1.538,1.538,0,0,1-.775.194,1.36,1.36,0,0,1-.914-.307,1.1,1.1,0,0,1-.358-.878,1.131,1.131,0,0,1,.578-1.064,2.628,2.628,0,0,1,.932-.256l.362-.044Z" fill="#999"/>
        <path id="Trazado_413" data-name="Trazado 413" d="M1532.758,992.172v-.743h.568v-1.111h1.051v1.111h.661v.743h-.661v2.106a.467.467,0,0,0,.064.307.716.716,0,0,0,.388.059h.1l.109-.007v.779l-.5.018a1.371,1.371,0,0,1-1.03-.256.754.754,0,0,1-.178-.552v-2.454Z" fill="#999"/>
        <path id="Trazado_414" data-name="Trazado 414" d="M1536.813,990.917h-1.078v-.961h1.078v.961Zm-1.078.476h1.078v3.986h-1.078v-3.986Z" fill="#999"/>
        <path id="Trazado_415" data-name="Trazado 415" d="M1540.383,994.318a1.829,1.829,0,0,0,0-1.846.85.85,0,0,0-.716-.326.859.859,0,0,0-.72.326,1.829,1.829,0,0,0,0,1.846.857.857,0,0,0,.72.326.847.847,0,0,0,.716-.326Zm.85.578a2.274,2.274,0,0,1-3.125,0,2.44,2.44,0,0,1,0-3,2.248,2.248,0,0,1,3.125,0,2.44,2.44,0,0,1,0,3Z" fill="#999"/>
        <path id="Trazado_416" data-name="Trazado 416" d="M1545.792,991.623a1.3,1.3,0,0,1,.4,1.072v2.684h-1.09v-2.425a1.089,1.089,0,0,0-.085-.482.608.608,0,0,0-.6-.308.742.742,0,0,0-.743.45,1.53,1.53,0,0,0-.1.607v2.158h-1.059V991.4h1.025v.582a1.776,1.776,0,0,1,.388-.443,1.367,1.367,0,0,1,.832-.241,1.578,1.578,0,0,1,1.03.325Z" fill="#999"/>
        <path id="Trazado_417" data-name="Trazado 417" d="M1549.418,993.441a1.232,1.232,0,0,1-.206.1,1.748,1.748,0,0,1-.279.07l-.239.044a1.565,1.565,0,0,0-.481.142.477.477,0,0,0-.246.443.466.466,0,0,0,.149.387.59.59,0,0,0,.369.117,1.091,1.091,0,0,0,.63-.2.835.835,0,0,0,.3-.721v-.387Zm-.646-.487a1.656,1.656,0,0,0,.422-.091.314.314,0,0,0,.227-.3.345.345,0,0,0-.175-.337,1.074,1.074,0,0,0-.507-.095.672.672,0,0,0-.534.183.758.758,0,0,0-.149.366h-1.026a1.515,1.515,0,0,1,.3-.86,1.754,1.754,0,0,1,1.447-.526,2.616,2.616,0,0,1,1.186.259,1,1,0,0,1,.519.98v1.829c0,.127,0,.281.007.461a.574.574,0,0,0,.064.278.368.368,0,0,0,.156.12v.154h-1.156a1.063,1.063,0,0,1-.067-.227,2.366,2.366,0,0,1-.03-.241,2.17,2.17,0,0,1-.507.4,1.544,1.544,0,0,1-.776.194,1.361,1.361,0,0,1-.914-.307,1.1,1.1,0,0,1-.358-.878,1.131,1.131,0,0,1,.578-1.064,2.628,2.628,0,0,1,.932-.256l.362-.044Z" fill="#999"/>
        <path id="Trazado_418" data-name="Trazado 418" d="M1552.51,995.379h-1.063v-5.391h1.063v5.391Z" fill="#999"/>
        <path id="Trazado_419" data-name="Trazado 419" d="M1556.976,993.342h1.4l-.686-2.121-.709,2.121Zm.071-3.354h1.3l1.947,5.391h-1.246l-.354-1.108h-2.026l-.38,1.108h-1.2l1.962-5.391Z" fill="#999"/>
        <path id="Trazado_420" data-name="Trazado 420" d="M1560.486,992.172v-.743h.567v-1.111h1.052v1.111h.66v.743h-.66v2.106a.476.476,0,0,0,.063.307.718.718,0,0,0,.388.059h.1l.108-.007v.779l-.5.018a1.37,1.37,0,0,1-1.03-.256.754.754,0,0,1-.179-.552v-2.454Z" fill="#999"/>
        <path id="Trazado_421" data-name="Trazado 421" d="M1565.988,994.318a1.829,1.829,0,0,0,0-1.846.849.849,0,0,0-.716-.326.86.86,0,0,0-.72.326,1.829,1.829,0,0,0,0,1.846.857.857,0,0,0,.72.326.847.847,0,0,0,.716-.326Zm.85.578a2.274,2.274,0,0,1-3.125,0,2.44,2.44,0,0,1,0-3,2.248,2.248,0,0,1,3.125,0,2.44,2.44,0,0,1,0,3Z" fill="#999"/>
        <path id="Trazado_422" data-name="Trazado 422" d="M1573.187,991.407a1.188,1.188,0,0,1,.474.359,1.142,1.142,0,0,1,.231.512,3.435,3.435,0,0,1,.038.589l-.008,2.512h-1.089v-2.538a.818.818,0,0,0-.075-.373.532.532,0,0,0-.522-.278.614.614,0,0,0-.608.358,1.114,1.114,0,0,0-.086.458v2.373h-1.07v-2.373a1.3,1.3,0,0,0-.075-.516.522.522,0,0,0-.526-.289.632.632,0,0,0-.612.289,1.1,1.1,0,0,0-.085.49v2.4H1568.1V991.4h1.033v.582a1.682,1.682,0,0,1,.373-.443,1.5,1.5,0,0,1,1.555-.033,1.172,1.172,0,0,1,.351.479,1.328,1.328,0,0,1,.519-.515,1.6,1.6,0,0,1,.731-.165,1.442,1.442,0,0,1,.529.1Z" fill="#999"/>
        <path id="Trazado_423" data-name="Trazado 423" d="M1576,990.917h-1.078v-.961H1576v.961Zm-1.078.476H1576v3.986h-1.078v-3.986Z" fill="#999"/>
        <path id="Trazado_424" data-name="Trazado 424" d="M1579.458,992.823a.922.922,0,0,0-.153-.4.65.65,0,0,0-.556-.241.732.732,0,0,0-.735.523,2.162,2.162,0,0,0-.1.739,1.991,1.991,0,0,0,.1.706.709.709,0,0,0,.716.5.637.637,0,0,0,.53-.2.96.96,0,0,0,.19-.512h1.086a1.746,1.746,0,0,1-1.832,1.584,1.746,1.746,0,0,1-1.443-.571,2.274,2.274,0,0,1-.463-1.481,2.317,2.317,0,0,1,.511-1.6,1.8,1.8,0,0,1,1.41-.57,2.15,2.15,0,0,1,1.25.336,1.554,1.554,0,0,1,.578,1.189Z" fill="#999"/>
        <path id="Trazado_425" data-name="Trazado 425" d="M1587.552,990.943h-2.909v1.145h2.671v.936h-2.671v1.386h3.044v.969h-4.167v-5.391h4.032v.955Z" fill="#999"/>
        <path id="Trazado_426" data-name="Trazado 426" d="M1591.779,991.623a1.3,1.3,0,0,1,.4,1.072v2.684h-1.09v-2.425a1.089,1.089,0,0,0-.085-.482.608.608,0,0,0-.6-.308.743.743,0,0,0-.743.45,1.532,1.532,0,0,0-.1.607v2.158H1588.5V991.4h1.025v.582a1.778,1.778,0,0,1,.388-.443,1.367,1.367,0,0,1,.832-.241,1.579,1.579,0,0,1,1.03.325Z" fill="#999"/>
        <path id="Trazado_427" data-name="Trazado 427" d="M1594.192,992.373a1.124,1.124,0,0,0-.253.614h1.652a.891.891,0,0,0-.257-.625.792.792,0,0,0-.567-.216.738.738,0,0,0-.575.227Zm1.489-.9a1.6,1.6,0,0,1,.671.589,1.987,1.987,0,0,1,.309.823,5.119,5.119,0,0,1,.034.79h-2.783a.982.982,0,0,0,.385.841.915.915,0,0,0,.529.15.773.773,0,0,0,.534-.183.875.875,0,0,0,.2-.274h1.086a1.317,1.317,0,0,1-.377.72,1.862,1.862,0,0,1-1.462.582,2.088,2.088,0,0,1-1.369-.49,1.955,1.955,0,0,1-.593-1.595,2.2,2.2,0,0,1,.533-1.587,1.856,1.856,0,0,1,1.392-.552,2.176,2.176,0,0,1,.914.186Z" fill="#999"/>
        <path id="Trazado_428" data-name="Trazado 428" d="M1599.668,991.3l.093,0v1.068c-.067-.007-.126-.012-.179-.015l-.127,0a.886.886,0,0,0-.861.409,1.569,1.569,0,0,0-.123.71v1.905H1597.4v-3.986h1.015v.7a2.19,2.19,0,0,1,.429-.545,1.177,1.177,0,0,1,.776-.245.31.31,0,0,1,.048,0Z" fill="#999"/>
        <path id="Trazado_429" data-name="Trazado 429" d="M1602.76,994.249a1.265,1.265,0,0,0,.258-.881,1.319,1.319,0,0,0-.246-.863.8.8,0,0,0-.653-.3.771.771,0,0,0-.772.516,1.787,1.787,0,0,0-.112.677,1.531,1.531,0,0,0,.119.618.778.778,0,0,0,.776.5.828.828,0,0,0,.63-.274Zm-.361-2.86a1.272,1.272,0,0,1,.626.578v-.574h1.034v3.781a2.088,2.088,0,0,1-.265,1.163,1.966,1.966,0,0,1-1.746.673,2.415,2.415,0,0,1-1.272-.3,1.106,1.106,0,0,1-.545-.9h1.157a.46.46,0,0,0,.145.263.908.908,0,0,0,.579.143.78.78,0,0,0,.768-.377,1.892,1.892,0,0,0,.127-.811v-.256a1.293,1.293,0,0,1-.329.384,1.34,1.34,0,0,1-.824.237,1.582,1.582,0,0,1-1.253-.537,2.165,2.165,0,0,1-.467-1.463,2.418,2.418,0,0,1,.452-1.492,1.5,1.5,0,0,1,1.279-.607,1.43,1.43,0,0,1,.534.091Z" fill="#999"/>
        <path id="Trazado_430" data-name="Trazado 430" d="M1605.215,996.143l.134.008a1.724,1.724,0,0,0,.3-.011.548.548,0,0,0,.238-.084.555.555,0,0,0,.172-.26.53.53,0,0,0,.067-.241l-1.492-4.162h1.183l.887,2.94.84-2.94h1.13l-1.4,3.92a5.43,5.43,0,0,1-.638,1.4,1.222,1.222,0,0,1-.94.275c-.095,0-.17,0-.228,0s-.143,0-.257-.011v-.834Z" fill="#999"/>
        <path id="Trazado_431" data-name="Trazado 431" d="M1612.728,993.342h1.4l-.687-2.121-.709,2.121Zm.071-3.354h1.3l1.948,5.391H1614.8l-.355-1.108h-2.025l-.381,1.108h-1.2l1.962-5.391Z" fill="#999"/>
        <path id="Trazado_432" data-name="Trazado 432" d="M1619.032,994.249a1.265,1.265,0,0,0,.258-.881,1.319,1.319,0,0,0-.246-.863.8.8,0,0,0-.653-.3.771.771,0,0,0-.772.516,1.787,1.787,0,0,0-.112.677,1.531,1.531,0,0,0,.119.618.778.778,0,0,0,.776.5.828.828,0,0,0,.63-.274Zm-.361-2.86a1.272,1.272,0,0,1,.626.578v-.574h1.034v3.781a2.089,2.089,0,0,1-.265,1.163,1.967,1.967,0,0,1-1.746.673,2.415,2.415,0,0,1-1.272-.3,1.1,1.1,0,0,1-.544-.9h1.156a.465.465,0,0,0,.145.263.908.908,0,0,0,.579.143.78.78,0,0,0,.768-.377,1.876,1.876,0,0,0,.127-.811v-.256a1.3,1.3,0,0,1-.329.384,1.34,1.34,0,0,1-.824.237,1.582,1.582,0,0,1-1.253-.537,2.164,2.164,0,0,1-.467-1.463,2.418,2.418,0,0,1,.452-1.492,1.5,1.5,0,0,1,1.279-.607,1.43,1.43,0,0,1,.534.091Z" fill="#999"/>
        <path id="Trazado_433" data-name="Trazado 433" d="M1622.353,992.373a1.124,1.124,0,0,0-.254.614h1.652a.887.887,0,0,0-.257-.625.793.793,0,0,0-.567-.216.734.734,0,0,0-.574.227Zm1.488-.9a1.592,1.592,0,0,1,.671.589,1.987,1.987,0,0,1,.31.823,5.382,5.382,0,0,1,.034.79h-2.783a.983.983,0,0,0,.384.841.917.917,0,0,0,.529.15.773.773,0,0,0,.534-.183.877.877,0,0,0,.2-.274h1.085a1.311,1.311,0,0,1-.377.72,1.862,1.862,0,0,1-1.462.582,2.09,2.09,0,0,1-1.369-.49,1.959,1.959,0,0,1-.593-1.595,2.2,2.2,0,0,1,.533-1.587,1.858,1.858,0,0,1,1.392-.552,2.173,2.173,0,0,1,.914.186Z" fill="#999"/>
        <path id="Trazado_434" data-name="Trazado 434" d="M1628.854,991.623a1.294,1.294,0,0,1,.4,1.072v2.684h-1.089v-2.425a1.088,1.088,0,0,0-.086-.482.606.606,0,0,0-.6-.308.74.74,0,0,0-.742.45,1.512,1.512,0,0,0-.105.607v2.158h-1.059V991.4h1.026v.582a1.776,1.776,0,0,1,.388-.443,1.367,1.367,0,0,1,.832-.241,1.575,1.575,0,0,1,1.029.325Z" fill="#999"/>
        <path id="Trazado_435" data-name="Trazado 435" d="M1632.666,992.823a.92.92,0,0,0-.152-.4.65.65,0,0,0-.556-.241.732.732,0,0,0-.735.523,2.136,2.136,0,0,0-.1.739,1.967,1.967,0,0,0,.1.706.708.708,0,0,0,.716.5.638.638,0,0,0,.53-.2.969.969,0,0,0,.19-.512h1.085a1.744,1.744,0,0,1-1.831,1.584,1.749,1.749,0,0,1-1.444-.571,2.279,2.279,0,0,1-.462-1.481,2.312,2.312,0,0,1,.511-1.6,1.8,1.8,0,0,1,1.41-.57,2.145,2.145,0,0,1,1.249.336,1.554,1.554,0,0,1,.579,1.189Z" fill="#999"/>
        <path id="Trazado_436" data-name="Trazado 436" d="M1634.651,996.143l.134.008a1.724,1.724,0,0,0,.3-.011.444.444,0,0,0,.41-.344.532.532,0,0,0,.067-.241l-1.492-4.162h1.182l.888,2.94.839-2.94h1.131l-1.4,3.92a5.434,5.434,0,0,1-.638,1.4,1.222,1.222,0,0,1-.94.275c-.095,0-.171,0-.228,0s-.143,0-.257-.011v-.834Z" fill="#999"/>
      </g>
    </g>
    <g id="Grupo_470" data-name="Grupo 470">
      <path id="Trazado_382" data-name="Trazado 382" d="M1459.431,1007.035a17.275,17.275,0,0,1,6.366-1.214,25.148,25.148,0,0,1,7.633.821c3.286.753,4.21,1.164,6.058,1.164a9.074,9.074,0,0,0,3.731-1.027,14.828,14.828,0,0,1-9.481,3.183c-4.86,0-9.413-2.806-11.86-2.738-.479.014-1.591.171-1.591.171a20.42,20.42,0,0,1,8.3,5.2c-.479.342-1.249.9-1.249.9a16.144,16.144,0,0,0-4.382-4.294c-2.7-1.711-3.525-1.643-3.525-1.643s-.822-.068-3.526,1.643a16.132,16.132,0,0,0-4.381,4.294s-.77-.563-1.249-.9a20.419,20.419,0,0,1,8.3-5.2s-1.112-.157-1.591-.171c-2.447-.068-7,2.738-11.861,2.738a14.832,14.832,0,0,1-9.481-3.183,9.081,9.081,0,0,0,3.731,1.027c1.848,0,2.773-.411,6.059-1.164a25.138,25.138,0,0,1,7.632-.821,17.278,17.278,0,0,1,6.367,1.214Z" fill="#999"/>
      <path id="Trazado_383" data-name="Trazado 383" d="M1470.692,1005.2a11.915,11.915,0,0,1,2.4.274c1.643.308,4.449,1.4,7.6.1a14.566,14.566,0,0,0,7.5-6.264,9.744,9.744,0,0,1-4,2.259c-2.944,1.027-3.252.685-5.614,1.472s-4.586,1.335-4.586,1.335a8.736,8.736,0,0,0,2.978-2.259,19.218,19.218,0,0,0,2.156-4.587c.548-1.643,1.335-3.8,1.335-3.8a73.85,73.85,0,0,0-4.9,5.716c-.992,1.54-1.919,3.592-2.5,4.244a4.889,4.889,0,0,1-2.362,1.506Z" fill="#999"/>
      <path id="Trazado_384" data-name="Trazado 384" d="M1479.112,1001.884a22.063,22.063,0,0,0,3.217-.753,18.247,18.247,0,0,0,5.956-3.594,17.012,17.012,0,0,0,3.183-4.723,9.2,9.2,0,0,0,.856-2.739s-.445.548-1.506,1.746a54.432,54.432,0,0,1-4.689,4.039,36.905,36.905,0,0,0-3.7,3.457,3.349,3.349,0,0,1-1.506,1.164,19.966,19.966,0,0,0,2.7-4.758,18.665,18.665,0,0,0,.787-5.613c-.034-1.506-.068-2.533-.068-2.533a43.248,43.248,0,0,0-3.594,7.633,27.247,27.247,0,0,0-.719,4.655,5.649,5.649,0,0,1-.924,2.019Z" fill="#999"/>
      <path id="Trazado_385" data-name="Trazado 385" d="M1485.615,994.388a14.753,14.753,0,0,1,1.677-1.745c1.13-1.027,3.492-2.328,4.827-4.416a13.111,13.111,0,0,0,1.985-5.237,12.74,12.74,0,0,0,.2-2.327,17.4,17.4,0,0,1-1.745,3.149c-1.36,1.911-2.541,2.891-3.286,3.97a39.005,39.005,0,0,0-2.259,3.731c0-.321,1.026-3.929.718-5.75a30.886,30.886,0,0,0-.958-3.937c-.274-1.232-.445-2.259-.445-2.259a28.789,28.789,0,0,0-1.13,6.2c-.034,2.533.548,3.08.48,5.271s-.069,3.354-.069,3.354Z" fill="#999"/>
      <path id="Trazado_386" data-name="Trazado 386" d="M1489.209,986.139a27.955,27.955,0,0,0,2.567-3.525c1.369-2.191,2.191-3.56,2.533-5.751a16.62,16.62,0,0,0,.39-3.833,10.761,10.761,0,0,0-.595-3.183,12.164,12.164,0,0,1-.479,2.635c-.445,1.575-1.506,2.738-2.294,5.134a29.5,29.5,0,0,0-1.1,4.963,22.64,22.64,0,0,0-1.232-4.928,42.669,42.669,0,0,0-2.7-4.69,30.008,30.008,0,0,0,.65,6.161c.651,2.465,1.849,3.218,2.157,4.69a5.81,5.81,0,0,1,.1,2.327Z" fill="#999"/>
      <path id="Trazado_387" data-name="Trazado 387" d="M1490.3,977.616s.172.274.548-1.369,1.2-2.4,1.3-3.833a13.8,13.8,0,0,0,.068-4.518,20.26,20.26,0,0,0-1.882-5.2,6.523,6.523,0,0,0-1.095-1.575,19.957,19.957,0,0,1,.479,2.157,24.358,24.358,0,0,1,.1,2.67c-.012,1-.3,1.93-.376,3.012a21.4,21.4,0,0,0,.616,5,12.822,12.822,0,0,0-2.293-4.039c-1.4-1.437-4.176-4.039-4.176-4.039a46.356,46.356,0,0,0,2.6,5.853c.993,1.541,2.841,3.252,3.252,3.971a16.216,16.216,0,0,1,.855,1.916Z" fill="#999"/>
      <path id="Trazado_388" data-name="Trazado 388" d="M1488.627,969.059s.069-1.369.137-2.43a12.8,12.8,0,0,0-.719-5.819,13.247,13.247,0,0,0-3.012-3.97c-.513-.582-1.4-1.2-.376.616s1.027,3.389,1.472,4.86,1.129,3.9,1.129,3.9a16.6,16.6,0,0,0-2.6-3.183c-1.164-.924-2.156-1.2-2.978-1.951s-1.78-1.848-1.78-1.848a15.32,15.32,0,0,0,1.814,3.7,14.939,14.939,0,0,0,3.115,2.977c.719.514,1.7,1.2,2.088,1.507a21.767,21.767,0,0,1,1.711,1.642Z" fill="#999"/>
      <path id="Trazado_389" data-name="Trazado 389" d="M1485.342,962.693a7.8,7.8,0,0,0-1.986-4.518,21.339,21.339,0,0,0-5.031-3.32,21.5,21.5,0,0,0,2.43,3.936,16.654,16.654,0,0,0,3.286,3.046c.65.411,1.3.856,1.3.856Z" fill="#999"/>
      <path id="Trazado_390" data-name="Trazado 390" d="M1448.17,1005.2a11.915,11.915,0,0,0-2.4.274c-1.643.308-4.45,1.4-7.6.1a14.571,14.571,0,0,1-7.5-6.264,9.744,9.744,0,0,0,4.005,2.259c2.944,1.027,3.252.685,5.613,1.472s4.587,1.335,4.587,1.335a8.725,8.725,0,0,1-2.978-2.259,19.134,19.134,0,0,1-2.156-4.587c-.548-1.643-1.335-3.8-1.335-3.8a73.649,73.649,0,0,1,4.894,5.716c.993,1.54,1.919,3.592,2.5,4.244a4.884,4.884,0,0,0,2.362,1.506Z" fill="#999"/>
      <path id="Trazado_391" data-name="Trazado 391" d="M1439.75,1001.884a22.1,22.1,0,0,1-3.218-.753,18.268,18.268,0,0,1-5.956-3.594,17.038,17.038,0,0,1-3.183-4.723,9.217,9.217,0,0,1-.855-2.739s.445.548,1.506,1.746a54.434,54.434,0,0,0,4.689,4.039,36.905,36.905,0,0,1,3.7,3.457,3.342,3.342,0,0,0,1.506,1.164,20,20,0,0,1-2.705-4.758,18.7,18.7,0,0,1-.787-5.613c.035-1.506.069-2.533.069-2.533a43.245,43.245,0,0,1,3.594,7.633,27.1,27.1,0,0,1,.718,4.655,5.641,5.641,0,0,0,.925,2.019Z" fill="#999"/>
      <path id="Trazado_392" data-name="Trazado 392" d="M1433.246,994.388a14.65,14.65,0,0,0-1.677-1.745c-1.129-1.027-3.491-2.328-4.826-4.416a13.077,13.077,0,0,1-1.985-5.237,12.694,12.694,0,0,1-.206-2.327,17.45,17.45,0,0,0,1.746,3.149c1.359,1.911,2.54,2.891,3.286,3.97a38.992,38.992,0,0,1,2.259,3.731c0-.321-1.026-3.929-.719-5.75a30.785,30.785,0,0,1,.959-3.937c.273-1.232.444-2.259.444-2.259a28.717,28.717,0,0,1,1.13,6.2c.034,2.533-.548,3.08-.479,5.271s.068,3.354.068,3.354Z" fill="#999"/>
      <path id="Trazado_393" data-name="Trazado 393" d="M1429.652,986.139a27.955,27.955,0,0,1-2.567-3.525c-1.369-2.191-2.19-3.56-2.533-5.751a16.617,16.617,0,0,1-.389-3.833,10.764,10.764,0,0,1,.6-3.183,12.155,12.155,0,0,0,.479,2.635c.445,1.575,1.506,2.738,2.293,5.134a29.567,29.567,0,0,1,1.1,4.963,22.574,22.574,0,0,1,1.232-4.928,42.48,42.48,0,0,1,2.7-4.69,29.959,29.959,0,0,1-.651,6.161c-.65,2.465-1.848,3.218-2.156,4.69a5.826,5.826,0,0,0-.1,2.327Z" fill="#999"/>
      <path id="Trazado_394" data-name="Trazado 394" d="M1428.557,977.616s-.171.274-.548-1.369-1.2-2.4-1.3-3.833a13.825,13.825,0,0,1-.069-4.518,20.253,20.253,0,0,1,1.883-5.2,6.531,6.531,0,0,1,1.094-1.575,19.831,19.831,0,0,0-.478,2.157,24.464,24.464,0,0,0-.1,2.67c.013,1,.3,1.93.377,3.012a21.394,21.394,0,0,1-.616,5,12.825,12.825,0,0,1,2.293-4.039c1.4-1.437,4.176-4.039,4.176-4.039a46.517,46.517,0,0,1-2.6,5.853c-.993,1.541-2.841,3.252-3.252,3.971a16.292,16.292,0,0,0-.856,1.916Z" fill="#999"/>
      <path id="Trazado_395" data-name="Trazado 395" d="M1430.234,969.059s-.068-1.369-.137-2.43a12.826,12.826,0,0,1,.719-5.819,13.28,13.28,0,0,1,3.012-3.97c.514-.582,1.4-1.2.377.616s-1.027,3.389-1.472,4.86-1.13,3.9-1.13,3.9a16.627,16.627,0,0,1,2.6-3.183c1.163-.924,2.156-1.2,2.978-1.951s1.779-1.848,1.779-1.848a15.323,15.323,0,0,1-1.814,3.7,14.963,14.963,0,0,1-3.114,2.977c-.719.514-1.7,1.2-2.088,1.507a21.835,21.835,0,0,0-1.712,1.642Z" fill="#999"/>
      <path id="Trazado_396" data-name="Trazado 396" d="M1433.52,962.693a7.794,7.794,0,0,1,1.985-4.518,21.336,21.336,0,0,1,5.032-3.32,21.566,21.566,0,0,1-2.43,3.936,16.658,16.658,0,0,1-3.286,3.046c-.651.411-1.3.856-1.3.856Z" fill="#999"/>
      <path id="Trazado_397" data-name="Trazado 397" d="M1460.321,982.134a1.266,1.266,0,1,1,1.266,1.267,1.266,1.266,0,0,1-1.266-1.267Z" fill="#999"/>
      <path id="Trazado_398" data-name="Trazado 398" d="M1462.272,952.711a.924.924,0,0,1-1.446.258c-3.642,2.894-7.683,11.345-9.844,22.078-2.776,13.782-1.16,24.863,2.949,25.489,4.148.631,9.747-9.235,12.517-22.988,2.775-13.782,1.405-24.4-2.7-25.021a2.915,2.915,0,0,0-1.472.184Zm-1.746-.423a.933.933,0,0,1,1.03-.919,3.68,3.68,0,0,1,2.29-.45c4.932.75,6.333,13.132,3.628,26.56-2.71,13.458-8.75,24.453-13.642,23.709-4.932-.751-6.2-12.843-3.5-26.271,2.116-10.506,6.177-19.475,10.2-22.55a.685.685,0,0,1,0-.079Z" fill="#999"/>
      <path id="Trazado_399" data-name="Trazado 399" d="M1449.8,967.067a.788.788,0,0,1-.353,1.14,46.335,46.335,0,0,0,5.025,15.292c4.756,9.279,10.068,13.647,11.991,11.462,2.138-2.43.435-11.616-4.208-20.674-4.757-9.28-9.915-13.523-11.838-11.337-.683.775-.695,2.188-.617,4.117Zm-1.454.418a.776.776,0,0,1,.119-.416,7.515,7.515,0,0,1,1.216-4.855c2.7-3.068,8.7,3.062,13.161,11.772,4.578,8.931,6.6,18.586,4.117,21.41-2.7,3.069-8.61-2.887-13.074-11.6-2.831-5.522-4.7-11.321-5.1-15.61a.786.786,0,0,1-.436-.705Z" fill="#999"/>
      <path id="Trazado_400" data-name="Trazado 400" d="M1452.632,985.917a.787.787,0,0,1-.731.5.777.777,0,0,1-.386-.1c-6.907.06-12.551-1.673-13-4.417-.614-3.777,8.31-7.9,18.884-9.531s20.222-.379,20.836,3.391-8.171,7.867-18.744,9.5a60.112,60.112,0,0,1-6.861.665Zm-1.125-.973a.788.788,0,0,1,1.091.317,59.164,59.164,0,0,0,6.794-.661c10.927-1.684,18.679-5.758,18.194-8.739s-9.163-4.528-20.085-2.845-18.391,5.692-17.905,8.674c.356,2.187,5.1,3.32,11.911,3.254Z" fill="#999"/>
      <path id="Trazado_401" data-name="Trazado 401" d="M1471.256,984.224a.787.787,0,0,1,.635,1.173c.062,1.668-1.671,2.648-3.681,2.556-2.189-.1-5.364-1.232-8.887-2.991-6.994-3.492-13.27-8.992-13.832-12.381-.323-1.951,1.219-2.729,3.379-2.631a24.061,24.061,0,0,1,8.826,2.817c6.39,3.19,12.173,8.056,13.56,11.457Zm-.838.786a.781.781,0,0,1,.229-.555c-1.268-3.1-6.8-7.883-13.246-11.1a23.451,23.451,0,0,0-8.561-2.747c-2.086-.1-2.9.609-2.7,1.863.5,3.02,6.451,8.391,13.476,11.9a21.336,21.336,0,0,0,8.336,2.5c1.948.089,2.652-.346,2.585-1.446a.779.779,0,0,1-.121-.419Z" fill="#999"/>
    </g>
  </g>
</svg>
