<svg xmlns="http://www.w3.org/2000/svg" width="19.507" height="33" viewBox="0 0 19.507 33">
  <g id="Grupo_9" data-name="Grupo 9" transform="translate(-891.536 -238.977)">
    <g id="Grupo_7" data-name="Grupo 7">
      <path id="Trazado_4" data-name="Trazado 4" d="M894.47,238.977a2.942,2.942,0,0,0-2.934,2.933v27.134a2.942,2.942,0,0,0,2.934,2.933h13.64a2.942,2.942,0,0,0,2.933-2.933V241.91a2.942,2.942,0,0,0-2.933-2.933Zm5.185,2.825h3.27c.215,0,.39.247.39.55s-.175.55-.39.55h-3.27c-.215,0-.389-.246-.389-.55S899.44,241.8,899.655,241.8Zm-6.508,3.922h16.285v19.507H893.147Zm8.143,21.064a1.816,1.816,0,1,1-1.816,1.816A1.816,1.816,0,0,1,901.29,266.788Z" fill="#2190ed"/>
    </g>
    <g id="Grupo_8" data-name="Grupo 8">
      <path id="Trazado_5" data-name="Trazado 5" d="M901.357,249.4a3.222,3.222,0,1,0,3.142,3.3,3.235,3.235,0,0,0-3.142-3.3Z" fill="#2190ed"/>
      <path id="Trazado_6" data-name="Trazado 6" d="M896.439,256.712h0a.807.807,0,0,0-.81.81v3.227a.806.806,0,0,0,.81.8h9.68a.8.8,0,0,0,.567-.236.807.807,0,0,0,.236-.567v-3.227a.807.807,0,0,0-.8-.81Z" fill="#2190ed"/>
    </g>
  </g>
</svg>
