<svg xmlns="http://www.w3.org/2000/svg" width="52.786" height="47.317" viewBox="0 0 52.786 47.317">
  <g id="Grupo_360" data-name="Grupo 360" transform="translate(-989.226 -5666.838)">
    <path id="Trazado_502" data-name="Trazado 502" d="M1013.138,5666.838a.983.983,0,0,0-.984.983v15.742a.985.985,0,0,0,1.673.7h0l3.709-3.65h13.311a.983.983,0,0,0,.984-.984v-11.806a.984.984,0,0,0-.984-.984Zm12.867,7.383a1.228,1.228,0,0,1,0-.99,1.18,1.18,0,0,1,.7-.7,1.306,1.306,0,0,1,.99,0,1.173,1.173,0,0,1,.7.7,1.236,1.236,0,0,1,0,.99,1.175,1.175,0,0,1-.7.7,1.3,1.3,0,0,1-1.42-.273,1.519,1.519,0,0,1-.274-.43Zm-5.21,0a1.22,1.22,0,0,1,0-.99,1.514,1.514,0,0,1,.273-.43,1.324,1.324,0,0,1,1.85,0,1.513,1.513,0,0,1,.273.43,1.236,1.236,0,0,1,0,.99,1.169,1.169,0,0,1-.7.7,1.218,1.218,0,0,1-.99,0,1.5,1.5,0,0,1-.43-.273,1.519,1.519,0,0,1-.273-.43Zm-5.211,0a1.228,1.228,0,0,1,0-.99,1.517,1.517,0,0,1,.274-.43,1.3,1.3,0,0,1,1.849,0,1.516,1.516,0,0,1,.274.43,1.236,1.236,0,0,1,0,.99,1.172,1.172,0,0,1-.7.7,1.218,1.218,0,0,1-.99,0,1.482,1.482,0,0,1-.43-.273,1.544,1.544,0,0,1-.274-.43Z" fill="#2190ed"/>
    <g id="Grupo_339" data-name="Grupo 339">
      <path id="Trazado_503" data-name="Trazado 503" d="M1001.753,5673.122a7.1,7.1,0,1,0,6.922,7.266,7.129,7.129,0,0,0-6.922-7.266Zm-10.743,16.1h0a1.775,1.775,0,0,0-1.784,1.783v21.376a1.777,1.777,0,0,0,1.784,1.77h21.327a1.775,1.775,0,0,0,1.769-1.77v-21.376a1.775,1.775,0,0,0-1.769-1.783Zm38.739-1.92a7.1,7.1,0,1,0,6.926,7.252,7.127,7.127,0,0,0-6.926-7.252Zm-10.834,15.976h0a1.776,1.776,0,0,0-1.784,1.783v7.111h0a1.777,1.777,0,0,0,1.784,1.77h21.324a1.777,1.777,0,0,0,1.773-1.77v-7.11h0a1.777,1.777,0,0,0-1.773-1.783Z" fill="#2190ed"/>
    </g>
  </g>
</svg>
