<?xml version="1.0" encoding="utf-8"?>
<!-- Generator: Adobe Illustrator 25.4.1, SVG Export Plug-In . SVG Version: 6.00 Build 0)  -->
<svg version="1.1" id="Capa_1" xmlns="http://www.w3.org/2000/svg" xmlns:xlink="http://www.w3.org/1999/xlink" x="0px" y="0px"
	 viewBox="0 0 63.3 63.3" style="enable-background:new 0 0 63.3 63.3;" xml:space="preserve">
<style type="text/css">
	.st0{fill:#2190ED;}
	.st1{fill:#FFFFFF;}
</style>
<g id="Grupo_430" transform="translate(19.641 19.627)">
	<g id="Grupo_429">
		<ellipse id="Elipse_27" class="st0" cx="12" cy="12" rx="31.6" ry="31.6"/>
		<path id="Trazado_545" class="st1" d="M6.2-6.7l0.7,0.1l1,0.7l2.8,2.2l4.5,3.9l0.6,0.3H18l7.1-0.8h1.6l0.9,0.1l0.6,0.3l0.1,0.4
			v0.7L28,2l-0.4,1.4l-1,2.6l-1.4,3.2l-0.8,1.7l-0.2,0.6V12l0,0.6l0.6,1.7l1.9,4.3l0.6,1.3l0.3,0.8l0.3,0.8l0.2,0.7l0.2,1.1
			l-0.3,0.4l-0.3,0.1l-0.3,0.1H25l-2.4-0.2l-1.9-0.2l-1.9-0.2l-1-0.1l-0.5,0l-0.4,0l-0.4,0L16,23.2l-0.2,0.1l-0.3,0.1l-0.8,0.7
			l-1.6,1.4l-1.2,1.1l-1,0.9l-1.1,1.1l-0.8,0.5l-0.5,0.4l-0.5,0.3l-0.6,0.3L7,30.4l-0.5,0.2H6.1l-0.2-0.2l-0.2-0.2l-0.2-0.3L5,28.5
			l-0.4-1.6L4,24.3l-0.3-1.2l-0.6-2.7l-0.2-0.8l-0.2-0.4l-0.2-0.3l-0.3-0.2l-0.4-0.2l-0.5-0.3l-1.3-0.8l-1.5-0.9l-1.3-0.8l-1.2-0.7
			l-0.8-0.5l-1-0.7l-0.5-0.4L-6.7,13l-0.4-0.4l-0.3-0.3L-7.6,12v-0.3l0.2-0.2l0.2-0.3l0.4-0.3l0.5-0.4l0.6-0.4l0.6-0.5L-3.9,9
			l1.2-0.8l1.2-0.7l1-0.5l0.8-0.5L1.1,6l0.6-0.3l0.5-0.4L2.4,5l0.2-0.3l0.2-0.6L3,3.8l1.1-4.8l0.4-1.6l0.5-1.8l0.3-1.1l0.3-0.6
			l0.4-0.4L6.2-6.7z"/>
	</g>
</g>
</svg>
