<?xml version="1.0" encoding="utf-8"?>
<!-- Generator: Adobe Illustrator 25.4.1, SVG Export Plug-In . SVG Version: 6.00 Build 0)  -->
<svg version="1.1" id="Componente_16_1" xmlns="http://www.w3.org/2000/svg" xmlns:xlink="http://www.w3.org/1999/xlink" x="0px"
	 y="0px" viewBox="0 0 211.1 40.6" style="enable-background:new 0 0 211.1 40.6;" xml:space="preserve">
<style type="text/css">
	.st0{fill:#2190ED;}
	.st1{fill:#FFFFFF;}
	.st2{enable-background:new    ;}
	.st3{fill:#333333;}
</style>
<g id="LOGO" transform="translate(-252.797 -7.056)">
	<circle id="BLUECIRCLE" class="st0" cx="273.1" cy="27.4" r="20.3"/>
	<path id="STAR" class="st1" d="M269.4,15.4l0.5,0.1l0.6,0.4l1.8,1.4l2.9,2.5l0.4,0.2h1.4l4.5-0.5h1l0.5,0.1l0.4,0.2l0.1,0.2v0.5
		l-0.2,0.5l-0.3,0.9l-0.7,1.7l-0.9,2l-0.5,1.1l-0.1,0.4v0.3v0.4l0.4,1.1l1.2,2.7l0.4,0.8l0.2,0.5l0.2,0.5l0.1,0.4l0.1,0.7l-0.2,0.3
		l-0.2,0.1l-0.2,0.1h-1.5l-1.5-0.1l-1.2-0.1l-1.2-0.1l-0.7-0.1h-0.3h-0.3h-0.3l-0.2,0.1l-0.2,0.1l-0.2,0.1l-0.5,0.4l-1.1,0.9
		l-0.8,0.7l-0.6,0.6l-0.7,0.7l-0.5,0.3l-0.3,0.2l-0.3,0.2l-0.4,0.2l-0.4,0.2l-0.3,0.1h-0.2l-0.2-0.1l-0.1-0.1l-0.1-0.2l-0.3-0.9
		l-0.3-1l-0.4-1.7l-0.2-0.8l-0.4-1.7l-0.1-0.5l-0.1-0.3l-0.1-0.2l-0.2-0.1l-0.2-0.2l-0.3-0.2l-0.8-0.5l-1-0.6l-0.9-0.5l-0.7-0.5
		l-0.5-0.3l-0.6-0.4l-0.3-0.2l-0.3-0.2l-0.3-0.2l-0.2-0.2l-0.1-0.2v-0.2l0.1-0.1l0.1-0.2l0.2-0.2l0.3-0.2l0.4-0.3l0.4-0.3l0.7-0.4
		l0.8-0.5l0.8-0.5l0.6-0.3l0.5-0.3l0.5-0.3l0.4-0.2l0.3-0.2l0.2-0.2l0.1-0.2l0.1-0.4l0.1-0.3l1-3.3l0.2-1l0.3-1.1l0.2-0.7l0.2-0.4
		l0.2-0.3L269.4,15.4z"/>
	<g class="st2">
		<path class="st3" d="M313.5,31c0,0.7-0.1,1.4-0.4,1.9c-0.3,0.6-0.6,1.1-1.1,1.5s-1.1,0.7-1.8,0.9c-0.7,0.2-1.5,0.3-2.3,0.3
			c-0.5,0-1,0-1.5-0.1s-0.9-0.2-1.3-0.3s-0.7-0.3-1-0.4c-0.3-0.1-0.5-0.3-0.6-0.4c-0.1-0.1-0.2-0.3-0.3-0.4
			c-0.1-0.2-0.1-0.4-0.1-0.7c0-0.1,0-0.3,0-0.4s0.1-0.2,0.1-0.3s0.1-0.1,0.1-0.2c0.1,0,0.1-0.1,0.2-0.1s0.3,0.1,0.5,0.2
			c0.2,0.2,0.5,0.3,0.9,0.5s0.8,0.4,1.3,0.5c0.5,0.2,1,0.2,1.7,0.2c0.5,0,1-0.1,1.4-0.2c0.4-0.1,0.8-0.3,1.1-0.5
			c0.3-0.2,0.6-0.5,0.7-0.9c0.2-0.4,0.3-0.8,0.3-1.2s-0.1-0.9-0.3-1.2s-0.5-0.6-0.9-0.8c-0.4-0.2-0.8-0.5-1.2-0.6
			c-0.5-0.2-0.9-0.4-1.4-0.6s-1-0.4-1.4-0.6c-0.5-0.2-0.9-0.5-1.2-0.9c-0.4-0.3-0.7-0.7-0.9-1.2s-0.3-1-0.3-1.7c0-0.5,0.1-1,0.3-1.5
			c0.2-0.5,0.5-1,0.9-1.4s1-0.7,1.6-1s1.4-0.4,2.3-0.4c0.4,0,0.8,0,1.1,0.1s0.7,0.1,1,0.2s0.6,0.2,0.8,0.3c0.2,0.1,0.4,0.2,0.5,0.3
			s0.2,0.2,0.2,0.2c0,0.1,0.1,0.1,0.1,0.2s0,0.1,0,0.2s0,0.2,0,0.3s0,0.3,0,0.4s0,0.2-0.1,0.3c0,0.1-0.1,0.1-0.1,0.2
			s-0.1,0.1-0.2,0.1s-0.2-0.1-0.4-0.2c-0.2-0.1-0.4-0.3-0.7-0.4c-0.3-0.1-0.6-0.3-1-0.4s-0.9-0.2-1.4-0.2s-1,0.1-1.4,0.2
			s-0.7,0.3-1,0.5s-0.4,0.5-0.6,0.8c-0.1,0.3-0.2,0.6-0.2,1c0,0.5,0.1,0.9,0.3,1.2s0.5,0.6,0.9,0.9s0.8,0.5,1.3,0.7s0.9,0.4,1.4,0.6
			s1,0.4,1.4,0.6s0.9,0.5,1.3,0.8s0.7,0.7,0.9,1.2C313.4,29.8,313.5,30.3,313.5,31z"/>
		<path class="st3" d="M331.1,35c0,0.1,0,0.1,0,0.2c0,0.1-0.1,0.1-0.2,0.1s-0.2,0.1-0.3,0.1c-0.1,0-0.3,0-0.5,0s-0.4,0-0.5,0
			s-0.2-0.1-0.3-0.1c-0.1,0-0.1-0.1-0.1-0.1s0-0.1,0-0.2v-2.1c-0.9,1-1.7,1.7-2.6,2.1c-0.8,0.4-1.7,0.7-2.5,0.7
			c-1,0-1.8-0.2-2.5-0.5s-1.2-0.8-1.6-1.4c-0.4-0.6-0.7-1.2-0.9-2s-0.3-1.7-0.3-2.7v-9.2c0-0.1,0-0.1,0-0.2s0.1-0.1,0.2-0.1
			s0.2-0.1,0.3-0.1c0.1,0,0.3,0,0.5,0s0.4,0,0.5,0s0.2,0,0.3,0.1s0.1,0.1,0.2,0.1c0,0.1,0.1,0.1,0.1,0.2v9c0,0.9,0.1,1.7,0.2,2.3
			s0.4,1.1,0.7,1.5c0.3,0.4,0.7,0.7,1.1,1c0.5,0.2,1,0.3,1.6,0.3c0.8,0,1.5-0.3,2.3-0.8s1.6-1.4,2.4-2.4v-11c0-0.1,0-0.1,0-0.2
			s0.1-0.1,0.2-0.1s0.2-0.1,0.3-0.1c0.1,0,0.3,0,0.5,0s0.3,0,0.5,0c0.1,0,0.2,0,0.3,0.1c0.1,0,0.1,0.1,0.2,0.1
			c0,0.1,0.1,0.1,0.1,0.2V35H331.1z"/>
		<path class="st3" d="M350.9,27.2c0,1.3-0.1,2.5-0.4,3.5s-0.7,1.9-1.3,2.6c-0.6,0.7-1.2,1.3-2.1,1.7c-0.8,0.4-1.7,0.6-2.8,0.6
			c-0.4,0-0.9,0-1.3-0.1s-0.8-0.2-1.1-0.4c-0.4-0.2-0.7-0.5-1.1-0.8s-0.8-0.7-1.2-1.1V41c0,0.1,0,0.1-0.1,0.2s-0.1,0.1-0.2,0.1
			s-0.2,0.1-0.3,0.1s-0.3,0-0.5,0s-0.3,0-0.5,0s-0.2,0-0.3-0.1c-0.1,0-0.1-0.1-0.2-0.1s0-0.1,0-0.2V19.8c0-0.1,0-0.1,0-0.2
			s0.1-0.1,0.2-0.1s0.2-0.1,0.3-0.1c0.1,0,0.3,0,0.4,0c0.2,0,0.3,0,0.4,0s0.2,0,0.3,0.1s0.1,0.1,0.2,0.1c0,0.1,0.1,0.1,0.1,0.2V22
			c0.5-0.5,0.9-0.9,1.3-1.2c0.4-0.4,0.8-0.6,1.3-0.9c0.4-0.2,0.9-0.4,1.3-0.5s0.9-0.2,1.4-0.2c1.1,0,2,0.2,2.8,0.6s1.4,1,1.9,1.7
			s0.8,1.6,1.1,2.5C350.8,25.1,350.9,26.1,350.9,27.2z M348.8,27.5c0-0.8-0.1-1.7-0.2-2.5s-0.4-1.5-0.7-2.1
			c-0.3-0.6-0.7-1.1-1.3-1.5s-1.2-0.6-2-0.6c-0.4,0-0.8,0.1-1.2,0.2c-0.4,0.1-0.8,0.3-1.2,0.6c-0.4,0.3-0.8,0.6-1.3,1
			c-0.4,0.4-0.9,0.9-1.4,1.5v6.6c0.8,1,1.6,1.8,2.4,2.3s1.6,0.8,2.4,0.8s1.4-0.2,2-0.6s1-0.9,1.3-1.5s0.6-1.3,0.8-2.1
			C348.7,29,348.8,28.3,348.8,27.5z"/>
		<path class="st3" d="M368.8,26.6c0,0.4-0.1,0.7-0.3,0.8s-0.4,0.2-0.6,0.2h-10.3c0,0.9,0.1,1.8,0.3,2.5s0.5,1.4,0.9,1.9
			s1,1,1.7,1.2s1.5,0.4,2.5,0.4c0.7,0,1.3-0.1,1.9-0.2c0.6-0.1,1-0.3,1.4-0.4c0.4-0.2,0.7-0.3,1-0.4c0.3-0.1,0.4-0.2,0.6-0.2
			c0.1,0,0.1,0,0.2,0s0.1,0.1,0.1,0.2c0,0.1,0.1,0.2,0.1,0.3s0,0.3,0,0.4c0,0.1,0,0.2,0,0.2s0,0.1,0,0.2c0,0.1,0,0.1-0.1,0.2
			c0,0.1-0.1,0.1-0.1,0.2s-0.2,0.2-0.5,0.3s-0.7,0.3-1.1,0.4c-0.5,0.1-1,0.3-1.6,0.4c-0.6,0.1-1.3,0.2-2,0.2c-1.2,0-2.2-0.2-3.1-0.5
			c-0.9-0.4-1.7-0.9-2.3-1.6c-0.6-0.7-1.1-1.5-1.4-2.6s-0.5-2.2-0.5-3.5s0.2-2.4,0.5-3.4s0.8-1.9,1.4-2.6s1.4-1.2,2.2-1.6
			s1.8-0.6,2.9-0.6s2.1,0.2,2.9,0.6s1.5,0.9,2,1.5s0.9,1.4,1.1,2.2c0.2,0.8,0.4,1.7,0.4,2.7v0.6H368.8z M366.8,26
			c0-1.6-0.3-2.9-1.1-3.8c-0.8-0.9-1.9-1.4-3.4-1.4c-0.8,0-1.4,0.1-2,0.4s-1.1,0.7-1.5,1.1s-0.7,1-0.9,1.6c-0.2,0.6-0.3,1.3-0.4,1.9
			h9.3V26z"/>
		<path class="st3" d="M382.8,20.6c0,0.2,0,0.3,0,0.4s0,0.2-0.1,0.3s-0.1,0.1-0.1,0.2c0,0-0.1,0.1-0.2,0.1s-0.2,0-0.4-0.1
			s-0.3-0.1-0.5-0.2s-0.4-0.1-0.6-0.2c-0.2,0-0.4-0.1-0.7-0.1c-0.3,0-0.6,0.1-0.9,0.2s-0.6,0.3-0.9,0.6c-0.3,0.3-0.7,0.7-1,1.1
			c-0.4,0.5-0.7,1-1.2,1.7V35c0,0.1,0,0.1-0.1,0.2s-0.1,0.1-0.2,0.1s-0.2,0.1-0.3,0.1c-0.1,0-0.3,0-0.5,0s-0.3,0-0.5,0
			c-0.1,0-0.2-0.1-0.3-0.1s-0.1-0.1-0.2-0.1s0-0.1,0-0.2V19.8c0-0.1,0-0.1,0-0.2s0.1-0.1,0.2-0.1s0.2-0.1,0.3-0.1s0.3,0,0.5,0
			s0.3,0,0.5,0c0.1,0,0.2,0,0.3,0.1s0.1,0.1,0.1,0.1c0,0.1,0,0.1,0,0.2v2.4c0.4-0.6,0.8-1.1,1.2-1.5s0.7-0.7,1.1-0.9
			c0.3-0.2,0.7-0.4,1-0.4s0.6-0.1,1-0.1c0.1,0,0.3,0,0.5,0s0.4,0,0.6,0.1s0.4,0.1,0.6,0.2s0.3,0.1,0.4,0.2s0.1,0.1,0.1,0.1
			s0,0.1,0.1,0.2c0,0.1,0,0.1,0,0.3C382.8,20.3,382.8,20.4,382.8,20.6z"/>
		<path class="st3" d="M399.1,26.6c0,0.4-0.1,0.7-0.3,0.8s-0.4,0.2-0.6,0.2h-10.3c0,0.9,0.1,1.8,0.3,2.5s0.5,1.4,0.9,1.9
			s1,1,1.7,1.2s1.5,0.4,2.5,0.4c0.7,0,1.3-0.1,1.9-0.2c0.6-0.1,1-0.3,1.4-0.4c0.4-0.2,0.7-0.3,1-0.4c0.3-0.1,0.4-0.2,0.6-0.2
			c0.1,0,0.1,0,0.2,0s0.1,0.1,0.1,0.2c0,0.1,0.1,0.2,0.1,0.3s0,0.3,0,0.4c0,0.1,0,0.2,0,0.2c0,0.1,0,0.1,0,0.2c0,0.1,0,0.1-0.1,0.2
			c0,0.1-0.1,0.1-0.1,0.2s-0.2,0.2-0.5,0.3s-0.7,0.3-1.1,0.4c-0.5,0.1-1,0.3-1.6,0.4c-0.6,0.1-1.3,0.2-2,0.2c-1.2,0-2.2-0.2-3.1-0.5
			c-0.9-0.4-1.7-0.9-2.3-1.6c-0.6-0.7-1.1-1.5-1.4-2.6s-0.5-2.2-0.5-3.5s0.2-2.4,0.5-3.4s0.8-1.9,1.4-2.6s1.4-1.2,2.2-1.6
			c0.9-0.4,1.8-0.6,2.9-0.6s2.1,0.2,2.9,0.6s1.5,0.9,2,1.5s0.9,1.4,1.1,2.2s0.4,1.7,0.4,2.7v0.6H399.1z M397,26
			c0-1.6-0.3-2.9-1.1-3.8c-0.8-0.9-1.9-1.4-3.4-1.4c-0.8,0-1.4,0.1-2,0.4s-1.1,0.7-1.5,1.1s-0.7,1-0.9,1.6c-0.2,0.6-0.3,1.3-0.4,1.9
			h9.3V26z"/>
		<path class="st3" d="M416.1,19.8v0.1V20v0.1v0.1L410.5,35c0,0.1-0.1,0.2-0.2,0.2c-0.1,0.1-0.2,0.1-0.3,0.1c-0.1,0-0.2,0.1-0.4,0.1
			c-0.1,0-0.3,0-0.5,0s-0.4,0-0.5,0s-0.3,0-0.4-0.1s-0.2-0.1-0.3-0.1s0.1-0.1,0.1-0.2l-5.5-14.7c0-0.1-0.1-0.2-0.1-0.2
			c0-0.1,0-0.1,0-0.1v-0.1c0-0.1,0-0.1,0-0.2s0.1-0.1,0.2-0.1s0.2,0,0.3-0.1c0.1,0,0.3,0,0.5,0s0.4,0,0.6,0c0.1,0,0.3,0,0.3,0.1
			s0.1,0.1,0.2,0.1c0,0.1,0.1,0.1,0.1,0.2l4.7,13.2v0.1v-0.1l4.7-13.2c0-0.1,0.1-0.1,0.1-0.2s0.1-0.1,0.2-0.1s0.2-0.1,0.3-0.1
			c0.1,0,0.3,0,0.5,0s0.3,0,0.4,0s0.2,0,0.3,0.1c0.1,0,0.1,0.1,0.1,0.1C416.1,19.7,416.1,19.7,416.1,19.8z"/>
		<path class="st3" d="M432.6,26.6c0,0.4-0.1,0.7-0.3,0.8s-0.4,0.2-0.6,0.2h-10.3c0,0.9,0.1,1.8,0.3,2.5c0.2,0.8,0.5,1.4,0.9,1.9
			s1,1,1.7,1.2s1.5,0.4,2.5,0.4c0.7,0,1.3-0.1,1.9-0.2c0.6-0.1,1-0.3,1.4-0.4c0.4-0.2,0.7-0.3,1-0.4c0.3-0.1,0.4-0.2,0.6-0.2
			c0.1,0,0.1,0,0.2,0s0.1,0.1,0.1,0.2c0,0.1,0.1,0.2,0.1,0.3s0,0.3,0,0.4c0,0.1,0,0.2,0,0.2c0,0.1,0,0.1,0,0.2c0,0.1,0,0.1-0.1,0.2
			c0,0.1-0.1,0.1-0.1,0.2s-0.2,0.2-0.5,0.3s-0.7,0.3-1.1,0.4c-0.5,0.1-1,0.3-1.6,0.4s-1.3,0.2-2,0.2c-1.2,0-2.2-0.2-3.1-0.5
			c-0.9-0.4-1.7-0.9-2.3-1.6c-0.6-0.7-1.1-1.5-1.4-2.6c-0.3-1-0.5-2.2-0.5-3.5s0.2-2.4,0.5-3.4s0.8-1.9,1.4-2.6s1.4-1.2,2.2-1.6
			c0.9-0.4,1.8-0.6,2.9-0.6s2.1,0.2,2.9,0.6s1.5,0.9,2,1.5s0.9,1.4,1.1,2.2c0.2,0.8,0.4,1.7,0.4,2.7v0.6H432.6z M430.5,26
			c0-1.6-0.3-2.9-1.1-3.8c-0.8-0.9-1.9-1.4-3.4-1.4c-0.8,0-1.4,0.1-2,0.4s-1.1,0.7-1.5,1.1c-0.4,0.5-0.7,1-0.9,1.6s-0.3,1.3-0.4,1.9
			h9.3V26z"/>
		<path class="st3" d="M450.5,35c0,0.1,0,0.1,0,0.2c0,0.1-0.1,0.1-0.2,0.1s-0.2,0.1-0.3,0.1c-0.1,0-0.3,0-0.5,0s-0.4,0-0.5,0
			s-0.2-0.1-0.3-0.1c-0.1,0-0.1-0.1-0.2-0.1c0-0.1-0.1-0.1-0.1-0.2v-9c0-0.9-0.1-1.7-0.2-2.3c-0.1-0.6-0.4-1.1-0.7-1.5
			c-0.3-0.4-0.7-0.7-1.1-1c-0.5-0.2-1-0.3-1.6-0.3c-0.8,0-1.5,0.3-2.3,0.8s-1.6,1.3-2.4,2.4V35c0,0.1,0,0.1,0,0.2
			c0,0.1-0.1,0.1-0.2,0.1s-0.2,0.1-0.3,0.1c-0.1,0-0.3,0-0.5,0s-0.3,0-0.5,0c-0.1,0-0.2-0.1-0.3-0.1s-0.1-0.1-0.2-0.1
			c0-0.1,0-0.1,0-0.2V19.8c0-0.1,0-0.1,0-0.2s0.1-0.1,0.2-0.1s0.2-0.1,0.3-0.1s0.3,0,0.5,0s0.3,0,0.5,0c0.1,0,0.2,0,0.3,0.1
			c0.1,0,0.1,0.1,0.1,0.1c0,0.1,0,0.1,0,0.2V22c0.9-1,1.7-1.7,2.6-2.1c0.8-0.4,1.7-0.7,2.5-0.7c1,0,1.8,0.2,2.5,0.5s1.2,0.8,1.6,1.4
			s0.7,1.2,0.9,2c0.2,0.8,0.3,1.7,0.3,2.7V35H450.5z"/>
		<path class="st3" d="M463.9,34.1c0,0.2,0,0.4-0.1,0.6c0,0.1-0.1,0.3-0.2,0.3c-0.1,0.1-0.2,0.2-0.4,0.2c-0.2,0.1-0.3,0.1-0.6,0.2
			c-0.2,0.1-0.4,0.1-0.7,0.1c-0.2,0-0.5,0-0.7,0c-0.7,0-1.4-0.1-1.9-0.3s-1-0.5-1.3-0.9s-0.6-0.9-0.7-1.5c-0.2-0.6-0.2-1.4-0.2-2.2
			v-9.4H455c-0.2,0-0.3-0.1-0.4-0.2s-0.1-0.3-0.1-0.6c0-0.1,0-0.3,0-0.4s0.1-0.2,0.1-0.3c0-0.1,0.1-0.1,0.2-0.2c0.1,0,0.1,0,0.2,0
			h2.3v-3.7c0-0.1,0-0.1,0-0.2c0-0.1,0.1-0.1,0.2-0.1s0.2-0.1,0.3-0.1c0.1,0,0.3,0,0.5,0s0.4,0,0.5,0s0.2,0,0.3,0.1
			c0.1,0,0.1,0.1,0.2,0.1c0,0.1,0.1,0.1,0.1,0.2v3.7h4.2c0.1,0,0.1,0,0.2,0s0.1,0.1,0.2,0.2c0,0.1,0.1,0.2,0.1,0.3
			c0,0.1,0,0.2,0,0.4c0,0.3,0,0.5-0.1,0.6s-0.2,0.2-0.4,0.2h-4.2v9.2c0,1.1,0.2,2,0.5,2.6s0.9,0.9,1.8,0.9c0.3,0,0.5,0,0.7-0.1
			s0.4-0.1,0.6-0.2c0.2-0.1,0.3-0.1,0.4-0.2s0.2-0.1,0.3-0.1c0.1,0,0.1,0,0.2,0s0.1,0.1,0.1,0.1c0,0.1,0,0.1,0.1,0.2
			S463.9,33.9,463.9,34.1z"/>
	</g>
</g>
</svg>
