<svg xmlns="http://www.w3.org/2000/svg" width="42.941" height="54.248" viewBox="0 0 42.941 54.248">
  <g id="Grupo_362" data-name="Grupo 362" transform="translate(-996.102 -5998.356)">
    <path id="Trazado_504" data-name="Trazado 504" d="M997.408,6047.661a1.3,1.3,0,0,1-1.306-1.305v-2.542l.069-11.266v-2.541a1.3,1.3,0,0,1,1.3-1.3h6.183a1.3,1.3,0,0,1,1.3,1.3v2.541l-.069,11.266v2.542a1.3,1.3,0,0,1-1.3,1.305Z" transform="translate(0 4.937)" fill="#2190ed"/>
    <path id="Trazado_505" data-name="Trazado 505" d="M1017.4,6046.357v-23.838a1.3,1.3,0,0,0-1.3-1.305h-6.183a1.3,1.3,0,0,0-1.3,1.305v23.838a1.3,1.3,0,0,0,1.3,1.305h6.183a1.263,1.263,0,0,0,1.3-1.305Z" transform="translate(1.616 4.937)" fill="#2190ed"/>
    <path id="Trazado_506" data-name="Trazado 506" d="M1024.749,5998.867l-8.725,15.265a1.088,1.088,0,0,0,.824,1.663h4.259l-.068,35.37a1.374,1.374,0,0,0,1.3,1.436h6.182a1.354,1.354,0,0,0,1.306-1.36l.069-23.276v-12.092h4.259a1.1,1.1,0,0,0,.824-1.663l-8.518-15.341a.977.977,0,0,0-1.717,0Z" transform="translate(3.908 0)" fill="#2190ed"/>
  </g>
</svg>
