<svg xmlns="http://www.w3.org/2000/svg" width="49.361" height="49.586" viewBox="0 0 49.361 49.586">
  <path id="Trazado_501" data-name="Trazado 501" d="M280.71,6047.805H269.29a1.562,1.562,0,0,1-1.327-.78l-5.737-9.89a1.555,1.555,0,0,1,0-1.561l5.737-9.883a1.561,1.561,0,0,1,1.35-.78h11.4a1.561,1.561,0,0,1,1.35.78l5.706,9.882h0a1.559,1.559,0,0,1,0,1.561l-5.706,9.89a1.56,1.56,0,0,1-1.35.78Zm30.442-25.759-5.721-9.889a1.559,1.559,0,0,0-1.351-.781h-11.4a1.558,1.558,0,0,0-1.35.781l-5.707,9.889a1.567,1.567,0,0,0,0,1.562l5.707,9.89h0a1.56,1.56,0,0,0,1.35.781H304.1a1.56,1.56,0,0,0,1.35-.781l5.714-9.889a1.562,1.562,0,0,0,0-1.562Zm-43.188-2.084a1.561,1.561,0,0,0,1.35.781h11.4a1.562,1.562,0,0,0,1.351-.781l5.706-9.882h0a1.56,1.56,0,0,0,0-1.561l-5.706-9.89c-.279-.483-.793-.406-1.351-.406H269.291c-.549.008-1.053-.07-1.327.406l-5.737,9.89a1.556,1.556,0,0,0,0,1.561Z" transform="translate(-262.016 -5998.219)" fill="#2190ed"/>
</svg>
