<svg xmlns="http://www.w3.org/2000/svg" width="43.5" height="54.04" viewBox="0 0 43.5 54.04">
  <g id="Grupo_361" data-name="Grupo 361" transform="translate(-632.472 -5999.799)">
    <g id="Grupo_349" data-name="Grupo 349" transform="translate(632.472 5999.799)">
      <path id="Trazado_509" data-name="Trazado 509" d="M633.483,6041.035h41.477a.948.948,0,0,1,1.012.869v3.452a.948.948,0,0,1-1.012.869H633.483a.948.948,0,0,1-1.011-.869V6041.9A.948.948,0,0,1,633.483,6041.035Z" transform="translate(-632.472 -5992.186)" fill="#2190ed"/>
      <path id="Trazado_510" data-name="Trazado 510" d="M633.483,6017.171h41.477a.948.948,0,0,1,1.012.869v3.452a.948.948,0,0,1-1.012.869H633.483a.948.948,0,0,1-1.011-.869v-3.452A.948.948,0,0,1,633.483,6017.171Z" transform="translate(-632.472 -5996.591)" fill="#2190ed"/>
      <path id="Trazado_511" data-name="Trazado 511" d="M636.455,6023.906h2.415a.869.869,0,0,1,.869.869v14.352a.869.869,0,0,1-.869.869h-2.415a.869.869,0,0,1-.869-.869v-14.352A.869.869,0,0,1,636.455,6023.906Z" transform="translate(-632.472 -5992.186)" fill="#2190ed"/>
      <path id="Trazado_512" data-name="Trazado 512" d="M643.2,6023.906h2.414a.869.869,0,0,1,.869.869v14.352a.869.869,0,0,1-.869.869H643.2a.869.869,0,0,1-.869-.869v-14.352A.869.869,0,0,1,643.2,6023.906Z" transform="translate(-630.653 -5992.186)" fill="#2190ed"/>
      <path id="Trazado_513" data-name="Trazado 513" d="M663.446,6023.906h2.414a.869.869,0,0,1,.869.869v14.352a.869.869,0,0,1-.869.869h-2.414a.869.869,0,0,1-.869-.869v-14.352A.869.869,0,0,1,663.446,6023.906Z" transform="translate(-626.344 -5992.186)" fill="#2190ed"/>
      <path id="Trazado_514" data-name="Trazado 514" d="M656.7,6023.906h2.415a.869.869,0,0,1,.869.869v14.352a.869.869,0,0,1-.869.869H656.7a.869.869,0,0,1-.869-.869v-14.352A.869.869,0,0,1,656.7,6023.906Z" transform="translate(-628.163 -5992.186)" fill="#2190ed"/>
      <path id="Trazado_515" data-name="Trazado 515" d="M649.951,6023.906h2.414a.869.869,0,0,1,.869.869v14.352a.869.869,0,0,1-.869.869h-2.414a.869.869,0,0,1-.869-.869v-14.352A.869.869,0,0,1,649.951,6023.906Z" transform="translate(-629.408 -5992.186)" fill="#2190ed"/>
      <path id="Trazado_516" data-name="Trazado 516" d="M674.888,6013.556l-19.955-13.545a1.3,1.3,0,0,0-1.423,0l-19.955,13.545c-.849.576-.372,1.744.711,1.744h39.91C675.26,6015.3,675.737,6014.132,674.888,6013.556Z" transform="translate(-632.472 -5999.799)" fill="#2190ed"/>
    </g>
  </g>
</svg>
