<svg xmlns="http://www.w3.org/2000/svg" width="35.21" height="28.335" viewBox="0 0 35.21 28.335">
  <g id="Grupo_6" data-name="Grupo 6" transform="translate(-884.037 -149.539)">
    <path id="Trazado_1" data-name="Trazado 1" d="M918.619,150.165a2.142,2.142,0,0,0-1.521-.626H886.185a2.141,2.141,0,0,0-2.148,2.145v18.893a2.141,2.141,0,0,0,2.148,2.145h12.023l-3.008,5.152h12.891l-3.008-5.152H917.1a2.141,2.141,0,0,0,2.149-2.145V151.684A2.141,2.141,0,0,0,918.619,150.165Zm-1.936,19.9h-30.2V151.926h30.2Z" fill="#2190ed"/>
    <g id="Grupo_5" data-name="Grupo 5">
      <path id="Trazado_2" data-name="Trazado 2" d="M901.73,154.277a3.5,3.5,0,1,0,3.415,3.585,3.517,3.517,0,0,0-3.415-3.585Z" fill="#2190ed"/>
      <path id="Trazado_3" data-name="Trazado 3" d="M896.385,162.222h0a.876.876,0,0,0-.88.879v3.508a.876.876,0,0,0,.88.873h10.521a.878.878,0,0,0,.873-.873V163.1a.877.877,0,0,0-.873-.879Z" fill="#2190ed"/>
    </g>
  </g>
</svg>
