<svg xmlns="http://www.w3.org/2000/svg" width="51.98" height="51.765" viewBox="0 0 51.98 51.765">
  <g id="Grupo_359" data-name="Grupo 359" transform="translate(-625.168 -5664.614)">
    <path id="Trazado_507" data-name="Trazado 507" d="M656.048,5700.484a4.891,4.891,0,1,1-4.891-4.891A4.89,4.89,0,0,1,656.048,5700.484Z" fill="#2190ed"/>
    <path id="Trazado_508" data-name="Trazado 508" d="M676.926,5692.188l-25.147-27.314a.868.868,0,0,0-1.238,0l-25.147,27.314a.831.831,0,0,0,.605,1.4h6.626v21.953a.833.833,0,0,0,.832.833h35.4a.838.838,0,0,0,.838-.833v-21.953h6.62a.843.843,0,0,0,.768-.5A.853.853,0,0,0,676.926,5692.188Zm-17.424,8.3a8.093,8.093,0,0,1-.189,1.746l1.972,1.437-2.3,3.994-2.232-.978a8.232,8.232,0,0,1-3.021,1.74l-.271,2.422h-4.6l-.265-2.422a8.3,8.3,0,0,1-3.027-1.74l-2.226.978-2.3-3.994L643,5702.23a8.118,8.118,0,0,1,0-3.492l-1.968-1.437,2.3-3.989,2.226.979a8.4,8.4,0,0,1,3.022-1.746l.27-2.416h4.6l.271,2.416a8.308,8.308,0,0,1,3.021,1.746l2.232-.979,2.3,3.989-1.972,1.437A8.137,8.137,0,0,1,659.5,5700.484Z" fill="#2190ed"/>
  </g>
</svg>
